<svg xmlns="http://www.w3.org/2000/svg" height="136" width="136" viewBox="0 0 29 29"><path fill="#FFFFFF" d="M0,0 h29v29H0z" shape-rendering="crispEdges"/><path fill="#000000" d="M0 0h7v1H0zM9 0h2v1H9zM16 0h5v1H16zM22,0 h7v1H22zM0 1h1v1H0zM6 1h1v1H6zM9 1h1v1H9zM11 1h1v1H11zM15 1h2v1H15zM20 1h1v1H20zM22 1h1v1H22zM28,1 h1v1H28zM0 2h1v1H0zM2 2h3v1H2zM6 2h1v1H6zM8 2h3v1H8zM14 2h1v1H14zM16 2h1v1H16zM19 2h2v1H19zM22 2h1v1H22zM24 2h3v1H24zM28,2 h1v1H28zM0 3h1v1H0zM2 3h3v1H2zM6 3h1v1H6zM8 3h1v1H8zM10 3h1v1H10zM12 3h3v1H12zM17 3h3v1H17zM22 3h1v1H22zM24 3h3v1H24zM28,3 h1v1H28zM0 4h1v1H0zM2 4h3v1H2zM6 4h1v1H6zM8 4h3v1H8zM12 4h1v1H12zM16 4h5v1H16zM22 4h1v1H22zM24 4h3v1H24zM28,4 h1v1H28zM0 5h1v1H0zM6 5h1v1H6zM8 5h4v1H8zM14 5h2v1H14zM17 5h1v1H17zM20 5h1v1H20zM22 5h1v1H22zM28,5 h1v1H28zM0 6h7v1H0zM8 6h1v1H8zM10 6h1v1H10zM12 6h1v1H12zM14 6h1v1H14zM16 6h1v1H16zM18 6h1v1H18zM20 6h1v1H20zM22,6 h7v1H22zM8 7h2v1H8zM11 7h1v1H11zM15 7h2v1H15zM19 7h1v1H19zM0 8h1v1H0zM2 8h5v1H2zM9 8h2v1H9zM12 8h1v1H12zM17 8h1v1H17zM22 8h5v1H22zM0 9h4v1H0zM10 9h1v1H10zM12 9h2v1H12zM16 9h1v1H16zM18 9h7v1H18zM28,9 h1v1H28zM0 10h1v1H0zM2 10h1v1H2zM4 10h5v1H4zM10 10h1v1H10zM12 10h4v1H12zM21 10h1v1H21zM1 11h2v1H1zM4 11h2v1H4zM7 11h5v1H7zM13 11h1v1H13zM16 11h1v1H16zM19 11h5v1H19zM25 11h1v1H25zM27 11h1v1H27zM3 12h1v1H3zM5 12h2v1H5zM8 12h1v1H8zM11 12h2v1H11zM14 12h1v1H14zM17 12h1v1H17zM19 12h1v1H19zM25 12h2v1H25zM2 13h1v1H2zM4 13h1v1H4zM8 13h3v1H8zM16 13h4v1H16zM21 13h2v1H21zM24 13h1v1H24zM28,13 h1v1H28zM0 14h1v1H0zM2 14h1v1H2zM4 14h4v1H4zM10 14h1v1H10zM15 14h3v1H15zM20 14h4v1H20zM25 14h2v1H25zM0 15h3v1H0zM5 15h1v1H5zM8 15h3v1H8zM14 15h1v1H14zM16 15h1v1H16zM18 15h1v1H18zM20 15h1v1H20zM23 15h2v1H23zM27 15h1v1H27zM1 16h2v1H1zM6 16h6v1H6zM15 16h4v1H15zM23 16h1v1H23zM25 16h2v1H25zM0 17h1v1H0zM5 17h1v1H5zM10 17h5v1H10zM16 17h9v1H16zM26 17h1v1H26zM28,17 h1v1H28zM0 18h1v1H0zM2 18h1v1H2zM4 18h1v1H4zM6 18h4v1H6zM13 18h4v1H13zM20 18h1v1H20zM22 18h2v1H22zM26 18h1v1H26zM0 19h1v1H0zM2 19h4v1H2zM7 19h4v1H7zM12 19h2v1H12zM16 19h1v1H16zM19 19h1v1H19zM21 19h4v1H21zM27 19h1v1H27zM0 20h1v1H0zM2 20h1v1H2zM4 20h3v1H4zM14 20h1v1H14zM20 20h5v1H20zM26,20 h3v1H26zM8 21h4v1H8zM16 21h3v1H16zM20 21h1v1H20zM24,21 h5v1H24zM0 22h7v1H0zM9 22h3v1H9zM15 22h1v1H15zM18 22h3v1H18zM22 22h1v1H22zM24 22h3v1H24zM0 23h1v1H0zM6 23h1v1H6zM8 23h1v1H8zM12 23h1v1H12zM14 23h3v1H14zM19 23h2v1H19zM24 23h1v1H24zM27,23 h2v1H27zM0 24h1v1H0zM2 24h3v1H2zM6 24h1v1H6zM8 24h5v1H8zM15 24h1v1H15zM20 24h5v1H20zM26 24h1v1H26zM0 25h1v1H0zM2 25h3v1H2zM6 25h1v1H6zM8 25h1v1H8zM11 25h1v1H11zM13 25h2v1H13zM16 25h3v1H16zM20 25h1v1H20zM23 25h1v1H23zM25,25 h4v1H25zM0 26h1v1H0zM2 26h3v1H2zM6 26h1v1H6zM8 26h1v1H8zM10 26h3v1H10zM15 26h3v1H15zM19 26h9v1H19zM0 27h1v1H0zM6 27h1v1H6zM10 27h2v1H10zM13 27h1v1H13zM16 27h1v1H16zM18 27h1v1H18zM20 27h2v1H20zM23 27h1v1H23zM25 27h1v1H25zM27 27h1v1H27zM0 28h7v1H0zM8 28h1v1H8zM11 28h1v1H11zM13 28h1v1H13zM17 28h3v1H17zM23 28h4v1H23z" shape-rendering="crispEdges"/></svg>