<svg class="bn-svg text-[40px] text-PrimaryText mobile:text-[32px] tablet:text-[32px]" viewBox="0 0 24 24" xmlns="http://www.w3.org/2000/svg"><path fill-rule="evenodd" clip-rule="evenodd" d="M15.69 1.978c.133 1.149-.345 2.28-1.046 3.112-.73.819-1.9 1.445-3.037 1.364-.15-1.104.428-2.28 1.073-2.996.73-.815 1.997-1.438 3.01-1.48zm3.64 6.17c-.135.076-2.231 1.27-2.208 3.699.026 2.94 2.707 3.912 2.739 3.922-.015.069-.42 1.403-1.424 2.757-.84 1.193-1.72 2.359-3.116 2.38-.665.014-1.113-.168-1.58-.357-.488-.197-.996-.402-1.79-.402-.843 0-1.374.212-1.886.416-.442.177-.87.349-1.474.372-1.33.047-2.347-1.273-3.217-2.454-1.738-2.413-3.092-6.8-1.277-9.786.88-1.464 2.484-2.406 4.197-2.432.755-.014 1.48.262 2.114.504.485.186.918.35 1.273.35.312 0 .733-.158 1.224-.343.773-.291 1.72-.648 2.683-.552.659.018 2.536.247 3.745 1.924l-.003.002z" fill="currentColor"/></svg>