<svg xmlns="http://www.w3.org/2000/svg" shape-rendering="crispEdges" height="116" width="116" viewBox="0 0 49 49"><path fill="#FFFFFF" d="M0,0 h49v49H0z"/><path fill="#000000" d="M0 0h7v1H0zM9 0h3v1H9zM13 0h1v1H13zM15 0h1v1H15zM17 0h1v1H17zM20 0h1v1H20zM23 0h1v1H23zM30 0h2v1H30zM35 0h3v1H35zM40 0h1v1H40zM42,0 h7v1H42zM0 1h1v1H0zM6 1h1v1H6zM9 1h5v1H9zM19 1h2v1H19zM22 1h2v1H22zM25 1h1v1H25zM27 1h1v1H27zM29 1h2v1H29zM33 1h2v1H33zM36 1h5v1H36zM42 1h1v1H42zM48,1 h1v1H48zM0 2h1v1H0zM2 2h3v1H2zM6 2h1v1H6zM8 2h4v1H8zM14 2h5v1H14zM20 2h1v1H20zM23 2h2v1H23zM26 2h4v1H26zM31 2h3v1H31zM35 2h1v1H35zM39 2h2v1H39zM42 2h1v1H42zM44 2h3v1H44zM48,2 h1v1H48zM0 3h1v1H0zM2 3h3v1H2zM6 3h1v1H6zM8 3h1v1H8zM11 3h1v1H11zM13 3h2v1H13zM16 3h1v1H16zM19 3h1v1H19zM22 3h1v1H22zM24 3h2v1H24zM29 3h1v1H29zM36 3h2v1H36zM39 3h1v1H39zM42 3h1v1H42zM44 3h3v1H44zM48,3 h1v1H48zM0 4h1v1H0zM2 4h3v1H2zM6 4h1v1H6zM8 4h1v1H8zM11 4h2v1H11zM16 4h3v1H16zM21 4h7v1H21zM29 4h2v1H29zM36 4h2v1H36zM42 4h1v1H42zM44 4h3v1H44zM48,4 h1v1H48zM0 5h1v1H0zM6 5h1v1H6zM8 5h1v1H8zM10 5h3v1H10zM14 5h3v1H14zM18 5h2v1H18zM22 5h1v1H22zM26 5h2v1H26zM31 5h1v1H31zM33 5h2v1H33zM36 5h3v1H36zM42 5h1v1H42zM48,5 h1v1H48zM0 6h7v1H0zM8 6h1v1H8zM10 6h1v1H10zM12 6h1v1H12zM14 6h1v1H14zM16 6h1v1H16zM18 6h1v1H18zM20 6h1v1H20zM22 6h1v1H22zM24 6h1v1H24zM26 6h1v1H26zM28 6h1v1H28zM30 6h1v1H30zM32 6h1v1H32zM34 6h1v1H34zM36 6h1v1H36zM38 6h1v1H38zM40 6h1v1H40zM42,6 h7v1H42zM8 7h1v1H8zM10 7h1v1H10zM12 7h5v1H12zM22 7h1v1H22zM26 7h4v1H26zM32 7h1v1H32zM34 7h1v1H34zM37 7h2v1H37zM0 8h1v1H0zM2 8h5v1H2zM9 8h4v1H9zM14 8h1v1H14zM16 8h3v1H16zM20 8h7v1H20zM31 8h1v1H31zM34 8h7v1H34zM42 8h5v1H42zM0 9h1v1H0zM3 9h3v1H3zM7 9h1v1H7zM9 9h1v1H9zM17 9h3v1H17zM23 9h3v1H23zM28 9h4v1H28zM35 9h1v1H35zM37 9h1v1H37zM41 9h3v1H41zM47 9h1v1H47zM0 10h1v1H0zM2 10h5v1H2zM8 10h1v1H8zM11 10h1v1H11zM13 10h1v1H13zM15 10h3v1H15zM19 10h3v1H19zM24 10h1v1H24zM28 10h1v1H28zM31 10h2v1H31zM34 10h1v1H34zM36 10h3v1H36zM40 10h1v1H40zM43 10h3v1H43zM47,10 h2v1H47zM2 11h1v1H2zM4 11h2v1H4zM8 11h2v1H8zM11 11h2v1H11zM15 11h2v1H15zM19 11h2v1H19zM25 11h3v1H25zM29 11h1v1H29zM32 11h2v1H32zM37 11h2v1H37zM40 11h1v1H40zM43 11h2v1H43zM47,11 h2v1H47zM0 12h4v1H0zM5 12h2v1H5zM12 12h2v1H12zM15 12h3v1H15zM21 12h5v1H21zM29 12h3v1H29zM33 12h8v1H33zM43 12h1v1H43zM45 12h1v1H45zM47 12h1v1H47zM0 13h2v1H0zM3 13h1v1H3zM11 13h2v1H11zM18 13h3v1H18zM22 13h2v1H22zM25 13h1v1H25zM29 13h5v1H29zM37 13h1v1H37zM42 13h3v1H42zM46 13h2v1H46zM0 14h1v1H0zM3 14h4v1H3zM9 14h3v1H9zM13 14h1v1H13zM16 14h2v1H16zM20 14h4v1H20zM26 14h1v1H26zM28 14h1v1H28zM34 14h2v1H34zM37 14h3v1H37zM43 14h2v1H43zM46,14 h3v1H46zM0 15h1v1H0zM3 15h1v1H3zM5 15h1v1H5zM8 15h5v1H8zM17 15h4v1H17zM22 15h1v1H22zM27 15h1v1H27zM29 15h1v1H29zM38 15h1v1H38zM42 15h3v1H42zM48,15 h1v1H48zM0 16h2v1H0zM3 16h1v1H3zM6 16h2v1H6zM9 16h2v1H9zM12 16h2v1H12zM16 16h2v1H16zM20 16h2v1H20zM23 16h3v1H23zM28 16h1v1H28zM31 16h2v1H31zM34 16h3v1H34zM40 16h1v1H40zM43 16h1v1H43zM45 16h2v1H45zM2 17h1v1H2zM5 17h1v1H5zM8 17h2v1H8zM12 17h2v1H12zM17 17h3v1H17zM23 17h3v1H23zM27 17h3v1H27zM32 17h1v1H32zM36 17h2v1H36zM39 17h1v1H39zM41 17h3v1H41zM47,17 h2v1H47zM0 18h2v1H0zM3 18h4v1H3zM8 18h3v1H8zM12 18h4v1H12zM17 18h1v1H17zM22 18h1v1H22zM24 18h1v1H24zM26 18h1v1H26zM28 18h1v1H28zM30 18h5v1H30zM36 18h1v1H36zM38 18h2v1H38zM44 18h2v1H44zM47,18 h2v1H47zM0 19h1v1H0zM3 19h1v1H3zM7 19h1v1H7zM12 19h4v1H12zM19 19h2v1H19zM25 19h2v1H25zM28 19h2v1H28zM32 19h1v1H32zM34 19h2v1H34zM37 19h1v1H37zM41 19h4v1H41zM48,19 h1v1H48zM2 20h1v1H2zM4 20h1v1H4zM6 20h2v1H6zM11 20h1v1H11zM13 20h1v1H13zM15 20h1v1H15zM17 20h8v1H17zM26 20h1v1H26zM29 20h3v1H29zM33 20h2v1H33zM36 20h3v1H36zM40 20h3v1H40zM46,20 h3v1H46zM2 21h1v1H2zM4 21h1v1H4zM8 21h1v1H8zM10 21h3v1H10zM16 21h2v1H16zM19 21h1v1H19zM24 21h3v1H24zM30 21h2v1H30zM41 21h5v1H41zM47,21 h2v1H47zM3 22h6v1H3zM10 22h1v1H10zM12 22h1v1H12zM15 22h3v1H15zM19 22h8v1H19zM32 22h3v1H32zM36 22h1v1H36zM38 22h1v1H38zM40,22 h9v1H40zM4 23h1v1H4zM8 23h1v1H8zM14 23h2v1H14zM18 23h3v1H18zM22 23h1v1H22zM26 23h7v1H26zM35 23h1v1H35zM37 23h1v1H37zM40 23h1v1H40zM44 23h1v1H44zM47 23h1v1H47zM0 24h2v1H0zM4 24h1v1H4zM6 24h1v1H6zM8 24h6v1H8zM15 24h1v1H15zM18 24h1v1H18zM20 24h3v1H20zM24 24h1v1H24zM26 24h1v1H26zM29 24h2v1H29zM35 24h3v1H35zM40 24h1v1H40zM42 24h1v1H42zM44 24h3v1H44zM48,24 h1v1H48zM0 25h3v1H0zM4 25h1v1H4zM8 25h1v1H8zM10 25h2v1H10zM15 25h1v1H15zM17 25h1v1H17zM19 25h1v1H19zM22 25h1v1H22zM26 25h2v1H26zM29 25h3v1H29zM35 25h1v1H35zM37 25h1v1H37zM39 25h2v1H39zM44 25h2v1H44zM2 26h10v1H2zM15 26h1v1H15zM17 26h1v1H17zM19 26h11v1H19zM31 26h1v1H31zM34 26h2v1H34zM37 26h2v1H37zM40 26h5v1H40zM48,26 h1v1H48zM7 27h1v1H7zM9 27h1v1H9zM13 27h4v1H13zM18 27h3v1H18zM22 27h3v1H22zM27 27h2v1H27zM32 27h2v1H32zM37 27h1v1H37zM39 27h2v1H39zM48,27 h1v1H48zM1 28h2v1H1zM4 28h1v1H4zM6 28h3v1H6zM15 28h5v1H15zM22 28h1v1H22zM24 28h4v1H24zM30 28h2v1H30zM34 28h8v1H34zM43 28h2v1H43zM47,28 h2v1H47zM1 29h1v1H1zM5 29h1v1H5zM7 29h5v1H7zM14 29h1v1H14zM16 29h1v1H16zM21 29h3v1H21zM26 29h5v1H26zM32 29h2v1H32zM35 29h3v1H35zM40 29h1v1H40zM45 29h1v1H45zM4 30h4v1H4zM10 30h4v1H10zM16 30h2v1H16zM19 30h1v1H19zM22 30h1v1H22zM28 30h1v1H28zM31 30h4v1H31zM38 30h2v1H38zM41 30h4v1H41zM47,30 h2v1H47zM0 31h2v1H0zM4 31h1v1H4zM8 31h1v1H8zM10 31h3v1H10zM14 31h3v1H14zM21 31h3v1H21zM26 31h1v1H26zM30 31h2v1H30zM35 31h1v1H35zM37 31h2v1H37zM40 31h1v1H40zM45 31h1v1H45zM48,31 h1v1H48zM0 32h2v1H0zM4 32h4v1H4zM9 32h1v1H9zM11 32h2v1H11zM20 32h2v1H20zM23 32h3v1H23zM27 32h1v1H27zM29 32h2v1H29zM35 32h5v1H35zM41 32h1v1H41zM44,32 h5v1H44zM0 33h2v1H0zM5 33h1v1H5zM9 33h3v1H9zM13 33h7v1H13zM21 33h5v1H21zM30 33h2v1H30zM33 33h1v1H33zM35 33h3v1H35zM39 33h3v1H39zM43 33h1v1H43zM1 34h1v1H1zM4 34h3v1H4zM9 34h1v1H9zM11 34h4v1H11zM20 34h2v1H20zM23 34h3v1H23zM27 34h1v1H27zM29 34h2v1H29zM33 34h1v1H33zM35 34h2v1H35zM38 34h3v1H38zM42 34h4v1H42zM47,34 h2v1H47zM0 35h1v1H0zM2 35h2v1H2zM10 35h3v1H10zM15 35h6v1H15zM22 35h8v1H22zM32 35h2v1H32zM35 35h1v1H35zM37 35h2v1H37zM40 35h1v1H40zM47,35 h2v1H47zM0 36h3v1H0zM4 36h1v1H4zM6 36h1v1H6zM8 36h1v1H8zM12 36h1v1H12zM16 36h1v1H16zM20 36h1v1H20zM22 36h1v1H22zM25 36h1v1H25zM29 36h1v1H29zM31 36h1v1H31zM34 36h1v1H34zM36 36h1v1H36zM38 36h5v1H38zM44 36h1v1H44zM46 36h1v1H46zM48,36 h1v1H48zM0 37h2v1H0zM7 37h1v1H7zM10 37h2v1H10zM13 37h1v1H13zM16 37h4v1H16zM21 37h1v1H21zM23 37h4v1H23zM29 37h2v1H29zM35 37h1v1H35zM37 37h1v1H37zM41 37h3v1H41zM48,37 h1v1H48zM1 38h1v1H1zM5 38h4v1H5zM13 38h3v1H13zM17 38h1v1H17zM22 38h1v1H22zM24 38h2v1H24zM28 38h1v1H28zM33 38h3v1H33zM38 38h5v1H38zM47,38 h2v1H47zM1 39h3v1H1zM7 39h2v1H7zM10 39h1v1H10zM15 39h5v1H15zM24 39h1v1H24zM26 39h5v1H26zM32 39h2v1H32zM35 39h3v1H35zM40 39h1v1H40zM43 39h1v1H43zM48,39 h1v1H48zM0 40h3v1H0zM6 40h2v1H6zM11 40h1v1H11zM16 40h2v1H16zM20 40h1v1H20zM22 40h5v1H22zM29 40h1v1H29zM31 40h1v1H31zM33 40h4v1H33zM39 40h8v1H39zM48,40 h1v1H48zM8 41h2v1H8zM12 41h2v1H12zM19 41h1v1H19zM22 41h1v1H22zM26 41h1v1H26zM28 41h5v1H28zM35 41h3v1H35zM40 41h1v1H40zM44 41h1v1H44zM46 41h1v1H46zM0 42h7v1H0zM9 42h3v1H9zM13 42h2v1H13zM16 42h1v1H16zM22 42h1v1H22zM24 42h1v1H24zM26 42h1v1H26zM28 42h3v1H28zM33 42h3v1H33zM38 42h1v1H38zM40 42h1v1H40zM42 42h1v1H42zM44 42h1v1H44zM46,42 h3v1H46zM0 43h1v1H0zM6 43h1v1H6zM8 43h1v1H8zM10 43h2v1H10zM13 43h3v1H13zM19 43h4v1H19zM26 43h4v1H26zM32 43h1v1H32zM37 43h2v1H37zM40 43h1v1H40zM44 43h1v1H44zM47,43 h2v1H47zM0 44h1v1H0zM2 44h3v1H2zM6 44h1v1H6zM8 44h2v1H8zM11 44h2v1H11zM16 44h3v1H16zM22 44h5v1H22zM29 44h1v1H29zM33 44h4v1H33zM38 44h1v1H38zM40 44h7v1H40zM48,44 h1v1H48zM0 45h1v1H0zM2 45h3v1H2zM6 45h1v1H6zM8 45h1v1H8zM10 45h1v1H10zM12 45h3v1H12zM19 45h2v1H19zM29 45h3v1H29zM37 45h1v1H37zM40 45h2v1H40zM43 45h2v1H43zM48,45 h1v1H48zM0 46h1v1H0zM2 46h3v1H2zM6 46h1v1H6zM8 46h1v1H8zM12 46h1v1H12zM17 46h1v1H17zM20 46h1v1H20zM23 46h3v1H23zM31 46h1v1H31zM34 46h1v1H34zM36 46h2v1H36zM43 46h1v1H43zM45 46h2v1H45zM0 47h1v1H0zM6 47h1v1H6zM9 47h1v1H9zM11 47h2v1H11zM15 47h1v1H15zM17 47h1v1H17zM19 47h2v1H19zM22 47h2v1H22zM27 47h1v1H27zM29 47h1v1H29zM34 47h1v1H34zM37 47h2v1H37zM41 47h2v1H41zM48,47 h1v1H48zM0 48h7v1H0zM8 48h1v1H8zM12 48h1v1H12zM16 48h1v1H16zM20 48h1v1H20zM23 48h1v1H23zM25 48h1v1H25zM28 48h1v1H28zM31 48h7v1H31zM41 48h1v1H41zM45,48 h4v1H45z"/></svg>