<svg class="widget-chat-loading-icon" width="32" height="32" viewBox="0 0 32 32" fill="none" xmlns="http://www.w3.org/2000/svg">
      <g id="ic/loading-1c">
      <path id="Subtract" fill-rule="evenodd" clip-rule="evenodd" d="M14 29.1281V25.2891C12.8595 25.0447 11.7948 24.5956 10.8465 23.982L8.13198 26.6966C9.82568 27.9445 11.8265 28.7998 14 29.1281ZM5.30352 23.8682L8.01807 21.1536C7.40449 20.2053 6.95532 19.1406 6.71092 18H2.87183C3.2002 20.1736 4.05554 22.1744 5.30352 23.8682ZM2.87183 14H6.71092C6.95532 12.8593 7.40449 11.7947 8.01806 10.8463L5.30352 8.13177C4.05554 9.82551 3.2002 11.8263 2.87183 14ZM8.13197 5.30337L10.8465 8.01791C11.7948 7.40436 12.8595 6.95522 14 6.71082V2.87183C11.8265 3.20018 9.82568 4.05546 8.13197 5.30337ZM18 29.1281C20.1736 28.7997 22.1744 27.9444 23.8682 26.6964L21.1537 23.982C20.2054 24.5956 19.1407 25.0448 18 25.2892V29.1281ZM23.9821 21.1535L26.6966 23.868C27.9445 22.1743 28.7997 20.1735 29.1281 18H25.2892C25.0449 19.1406 24.5957 20.2052 23.9821 21.1535ZM25.2893 14H29.1281C28.7997 11.8264 27.9445 9.82568 26.6966 8.13199L23.9822 10.8464C24.5957 11.7947 25.0449 12.8594 25.2893 14ZM21.1537 8.01795L23.8682 5.30353C22.1744 4.05556 20.1736 3.20023 18 2.87184V6.71079C19.1407 6.95519 20.2054 7.40436 21.1537 8.01795Z" fill="#202630"/>
      </g>
      </svg>