<svg aria-name="common-widget" xmlns="http://www.w3.org/2000/svg" style="position: absolute; width: 0px; height: 0px; overflow: hidden;" aria-hidden="true"><symbol viewBox="0 0 24 24" id="Academy2C"><path fill-rule="evenodd" clip-rule="evenodd" d="M22.8254 9.24998L12.0001 3L7.45358 5.625L14.6704 9.79165L12.9384 10.7917L5.72153 6.625L1.1748 9.24998L12.0001 15.5L22.8254 9.24998ZM6.80371 17.9999L11.9999 21L17.196 17.9999V14.5L11.9999 17.5001L6.80371 14.5V17.9999Z" fill="currentColor"/><path d="M2.99427 12.79L0.75 15.0343L2.99427 17.29L5.25 15.0343L2.99427 12.79Z" fill="#F0B90B"/></symbol><symbol viewBox="0 0 24 24" id="Api2C"><path d="M17 5H20V19H17V5Z" fill="#F0B90B"/><path fill-rule="evenodd" clip-rule="evenodd" d="M4 12C4 8.13401 7.13401 5 11 5H12V8H15V11H12V13H15V16H12V19H11C7.13401 19 4 15.866 4 12Z" fill="currentColor"/></symbol><symbol viewBox="0 0 20 20" id="BNB1C"> <path d="M5.873 4.83108L9.99998 2.5L14.127 4.83108L12.6455 5.64189L9.99998 4.22297L7.35448 5.64189L5.873 4.83108ZM14.127 7.66892L12.6455 6.85811L9.99998 8.27703L7.35448 6.85811L5.873 7.66892V9.39189L8.5185 10.8108V13.75L9.99998 14.5608L11.4815 13.75V10.8108L14.127 9.39189V7.66892ZM14.127 12.3311V10.6081L12.6455 11.4189V13.1419L14.127 12.3311ZM15.1852 12.8378L12.5397 14.2568V15.9797L16.6666 13.6486V9.08784L15.1852 10V12.8378ZM13.7037 6.25L15.1852 7.06081V8.78378L16.6666 7.97297V6.25L15.1852 5.43919L13.7037 6.25ZM8.5185 14.9662V16.6892L9.99998 17.5L11.4815 16.6892V14.9662L9.99998 15.777L8.5185 14.9662ZM5.873 12.3311L7.35448 13.1419V11.4189L5.873 10.6081V12.3311ZM8.5185 6.25L9.99998 7.06081L11.4815 6.25L9.99998 5.43919L8.5185 6.25ZM4.8148 7.06081L6.29628 6.25L4.8148 5.43919L3.33331 6.25V7.97297L4.8148 8.78378V7.06081ZM4.8148 10L3.33331 9.18919V13.75L7.4603 16.0811V14.3581L4.8148 12.9392V10Z" fill="currentColor"/></symbol><symbol viewBox="0 0 24 24" id="Blog2C"><path d="M3 4H21V6H3V4Z" fill="#F0B90B"/><path fill-rule="evenodd" clip-rule="evenodd" d="M3 8H21V19.9999H3V8ZM5 10.25H19V11.75H5V10.25ZM10.5 13.25H5V17.75H10.5V13.25ZM12 13.25H19V14.75H12V13.25ZM19 16.25H12V17.75H19V16.25Z" fill="currentColor"/></symbol><symbol viewBox="0 0 24 24" id="Charity2C"><path fill-rule="evenodd" clip-rule="evenodd" d="M5.46447 15.4595C4.52678 14.5218 4 13.25 4 11.9239L4 8.33813L9.54049 13.8787C10.4782 14.8163 11.0049 16.0881 11.0049 17.4142L11.0049 20.9999L5.46447 15.4595ZM18.5356 15.4595C19.4733 14.5218 20.0001 13.25 20.0001 11.9239L20.0001 8.33813L14.4596 13.8787C13.5219 14.8163 12.9951 16.0881 12.9951 17.4142L12.9951 20.9999L18.5356 15.4595Z" fill="currentColor"/><path d="M20.0001 11.9239C20.0001 13.25 19.4733 14.5218 18.5356 15.4595L12.9951 20.9999L12.9951 17.4142C12.9951 16.0881 13.5219 14.8163 14.4596 13.8787L20.0001 8.33813L20.0001 11.9239Z" fill="#F0B90B"/><path d="M13.075 3.4448L12.0019 4.5179L10.9288 3.4448C9.68727 2.20331 7.67441 2.20335 6.43296 3.44488C5.1916 4.68634 5.19162 6.69905 6.43301 7.94048L12.0019 13.5096L17.5708 7.94066C18.8123 6.69916 18.8123 4.68629 17.5708 3.4448C16.3293 2.2033 14.3165 2.2033 13.075 3.4448Z" fill="currentColor"/></symbol><symbol viewBox="0 0 24 24" id="CloudMining2C"><path fill-rule="evenodd" clip-rule="evenodd" d="M7 11C5.34315 11 4 9.65685 4 8C4 6.34315 5.34315 5 7 5C8.65685 5 10 6.34315 10 8C10 9.65685 8.65685 11 7 11ZM7.00003 6.66666L5.6667 8L7.00003 9.33333L8.33337 8L7.00003 6.66666Z" fill="#F0B90B"/><path fill-rule="evenodd" clip-rule="evenodd" d="M16.3371 9.54698L20.9635 14.1734C21.1843 11.9528 20.3734 9.41267 18.6252 7.25888L20.4403 5.44379L18.6725 3.67602L16.8574 5.49111C14.7036 3.74287 12.1634 2.93193 9.94284 3.15275L14.5693 7.77921L5.94458 16.4039L7.71235 18.1717L16.3371 9.54698Z" fill="currentColor"/><path d="M4.17614 17.464C3.44558 18.264 3 19.3287 3 20.4975V20.9999L7.71214 21L4.17614 17.464Z" fill="currentColor"/><path d="M7.71214 21L15.2865 13.426C16.0392 14.2304 16.5 15.3114 16.5 16.5V17.4013C16.9413 17.146 17.4536 16.9999 18 16.9999C19.6569 16.9999 21 18.3431 21 19.9999V20.9999L7.71214 21Z" fill="currentColor"/></symbol><symbol viewBox="0 0 24 24" id="Convert2C"><path d="M14 3H21V10L14 3Z" fill="currentColor"/><path fill-rule="evenodd" clip-rule="evenodd" d="M12 6C8.68629 6 6 8.68629 6 12C6 15.3137 8.68629 18 12 18C15.3137 18 18 15.3137 18 12C18 8.68629 15.3137 6 12 6ZM12 14.4L14.4 12L12 9.6L9.6 12L12 14.4Z" fill="currentColor"/><path d="M3 21H10L3 14V21Z" fill="currentColor"/><path d="M3 21H10L3 14V21Z" fill="#F0B90B"/><path d="M14 3H21V10L14 3Z" fill="#F0B90B"/></symbol><symbol viewBox="0 0 24 24" id="CopyTrading2C"><path fill-rule="evenodd" clip-rule="evenodd" d="M7.50049 11.9961C9.98577 11.9961 12.0005 14.0108 12.0005 16.4961C12.0005 18.9814 9.98577 20.9961 7.50049 20.9961C5.01521 20.9961 3.00049 18.9814 3.00049 16.4961C3.00049 14.0108 5.01521 11.9961 7.50049 11.9961ZM7.50049 18.4247L5.57192 16.4961L7.50049 14.5675L9.42906 16.4961L7.50049 18.4247Z" fill="#F0B90B"/><path fill-rule="evenodd" clip-rule="evenodd" d="M19.5005 5C19.5005 6.38071 18.3812 7.5 17.0005 7.5C15.6198 7.5 14.5005 6.38071 14.5005 5C14.5005 3.61929 15.6198 2.5 17.0005 2.5C18.3812 2.5 19.5005 3.61929 19.5005 5ZM3.00049 3H12.5005V6H6.00049V9.99609H3.00049V3ZM21.0005 15V21H14.0005V18H18.0005V15H21.0005ZM15.3338 9C14.0452 9 13.0005 10.0447 13.0005 11.3333V13H21.0005V11.3333C21.0005 10.0447 19.9558 9 18.6672 9H15.3338Z" fill="currentColor"/></symbol><symbol viewBox="0 0 24 24" id="DefiWallet2C"><path d="M18 9C18 5.68629 15.3137 3 12 3C8.68629 3 6 5.68629 6 9H9.5L12 6.5L14.5 9H18Z" fill="#F0B90B"/><path fill-rule="evenodd" clip-rule="evenodd" d="M21 11H3V15H5V17H3V19H5V21H21V11ZM5 19V17H7V19H5ZM15 14H19V18H15V14Z" fill="currentColor"/></symbol><symbol viewBox="0 0 24 24" id="EarnLending2C"><path fill-rule="evenodd" clip-rule="evenodd" d="M13.5572 6.26976L16.5 3H7.5L10.4428 6.26976C7.3263 6.97773 5 9.76516 5 13.0959V20.9709H19V13.0959C19 9.76516 16.6737 6.97773 13.5572 6.26976ZM16 13.0002C16 15.2094 14.2091 17.0002 12 17.0002C9.79086 17.0002 8 15.2094 8 13.0002C8 10.7911 9.79086 9.00023 12 9.00023C14.2091 9.00023 16 10.7911 16 13.0002Z" fill="currentColor"/><path d="M9.87891 13L12.0002 10.8787L14.1215 13L12.0002 15.1213L9.87891 13Z" fill="#F0B90B"/></symbol><symbol viewBox="0 0 24 24" id="FanToken2C"><path d="M14 11V21H10V11H14Z" fill="currentColor"/><path d="M4 15H8V21H4V15Z" fill="currentColor"/><path d="M20 21H16V14H20V21Z" fill="currentColor"/><path d="M12 3L15 6L12 9L9 6L12 3Z" fill="#F0B90B"/></symbol><symbol viewBox="0 0 24 24" id="Feed2C"><path fill-rule="evenodd" clip-rule="evenodd" d="M7.5 2.5H21.5V14.5H18.5V5.5H7.5V2.5Z" fill="#F0B90B"/><path fill-rule="evenodd" clip-rule="evenodd" d="M16.5 7.5H2.5V18.5H5.5V21.5L8.5 18.5H16.5V7.5ZM6.59088 10.4499C9.60344 10.4499 12.0456 12.892 12.0456 15.9046L13.5 15.9046C13.5 12.0888 10.4067 8.99551 6.59088 8.99551V10.4499ZM9.1361 15.9046C9.1361 14.4989 7.99657 13.3594 6.59088 13.3594V11.905C8.79981 11.905 10.5905 13.6957 10.5905 15.9046L9.1361 15.9046ZM7.68161 15.9047C7.68161 16.5071 7.19324 16.9955 6.59081 16.9955C5.98837 16.9955 5.5 16.5071 5.5 15.9047C5.5 15.3023 5.98837 14.8139 6.59081 14.8139C7.19324 14.8139 7.68161 15.3023 7.68161 15.9047Z" fill="currentColor"/></symbol><symbol viewBox="0 0 24 24" id="FuturesCoinM2C"><path d="M3 9H7V17C7 18.1046 6.10457 19 5 19L5 19C3.89543 19 3 18.1046 3 17V9Z" fill="#F0B90B"/><path fill-rule="evenodd" clip-rule="evenodd" d="M22 3H9V18C9 19.1046 8.10457 20 7 20H18C20.2091 20 22 18.2091 22 16V3ZM18.75 9.25C18.75 11.0449 17.2949 12.5 15.5 12.5C13.7051 12.5 12.25 11.0449 12.25 9.25C12.25 7.45507 13.7051 6 15.5 6C17.2949 6 18.75 7.45507 18.75 9.25ZM18.75 14.5V17H12.25V14.5H18.75ZM14 9.25L15.5 7.75L17 9.25L15.5 10.75L14 9.25Z" fill="currentColor"/></symbol><symbol viewBox="0 0 24 24" id="FuturesOptionsEuropean2C"><path d="M3 9H7V17C7 18.1046 6.10457 19 5 19L5 19C3.89543 19 3 18.1046 3 17V9Z" fill="#F0B90B"/><path fill-rule="evenodd" clip-rule="evenodd" d="M9 3H22V16C22 18.2091 20.2091 20 18 20H9H7C8.10457 20 9 19.1046 9 18V3ZM18.3526 15.25H13.15V7.75H18.3526V9.44977H15.0249V10.6141H17.8787V12.3035H15.0249V13.5502H18.3526V15.25Z" fill="currentColor"/></symbol><symbol viewBox="0 0 24 24" id="FuturesUsdtM2C"><path d="M3 9H7V17C7 18.1046 6.10457 19 5 19L5 19C3.89543 19 3 18.1046 3 17V9Z" fill="#F0B90B"/><path fill-rule="evenodd" clip-rule="evenodd" d="M9 3H22V16C22 18.2091 20.2091 20 18 20H9H7C8.10457 20 9 19.1046 9 18V3ZM15.219 16.5H16.5415V15.3863C18.0844 15.1311 18.8037 14.1682 18.8037 13.0313C18.8037 11.848 18.0264 11.1868 16.4023 10.8155V8.88979C16.9591 9.0174 17.3304 9.27262 17.6088 9.58585L18.6645 8.63457C18.154 8.05452 17.4696 7.6949 16.5415 7.59049V6.5H15.219V7.59049C13.7225 7.7645 12.922 8.57657 12.922 9.79466C12.922 10.92 13.6297 11.6856 15.3698 12.0452V14.1334C14.7202 14.0406 14.1749 13.7274 13.7341 13.2633L12.69 14.2146C13.27 14.8527 14.0473 15.3283 15.219 15.4327V16.5ZM15.3698 10.5835C14.7782 10.4211 14.5229 10.1891 14.5229 9.74826C14.5229 9.29582 14.7782 8.9826 15.3698 8.86659V10.5835ZM16.4023 12.2773C17.0636 12.4745 17.2028 12.8225 17.2028 13.1589C17.2028 13.5998 16.9475 13.9594 16.4023 14.1102V12.2773Z" fill="currentColor"/></symbol><symbol viewBox="0 0 24 24" id="Institutions2C"><path d="M8 4H16V6.5H8V4Z" fill="#F0B90B"/><path fill-rule="evenodd" clip-rule="evenodd" d="M21 8H3V12.75L10.75 12.75V10.25H13.25V12.75H21V8ZM21 15.25L13.25 15.25V17.75H10.75V15.25L3 15.25V20H21V15.25Z" fill="currentColor"/></symbol><symbol viewBox="0 0 24 24" id="Launchpad2C"><path fill-rule="evenodd" clip-rule="evenodd" d="M14.5858 3H21V9.41421L16.8124 13.6018L16.7594 18.5488L13.9384 21.3698L9.67094 17.0923L12.4966 14.2667L9.66819 11.4382L6.84252 14.2639L2.63354 10.0639L5.45455 7.24288L10.3982 7.18763L14.5858 3ZM16.3517 5.26462L18.4731 7.38594L16.3517 9.50726L14.2304 7.38594L16.3517 5.26462Z" fill="currentColor"/><path d="M6.84106 14.2661L9.66895 17.094L6.84106 19.9219L4.01318 17.094L6.84106 14.2661Z" fill="#F0B90B"/></symbol><symbol viewBox="0 0 24 24" id="Margin2C"><path fill-rule="evenodd" clip-rule="evenodd" d="M18.7678 7.0185L5.82854 19.9577L4.06077 18.19L17 5.25073L17.8839 6.13462L18.7678 7.0185Z" fill="currentColor"/><path d="M12 4H20V12L12 4Z" fill="currentColor"/><path fill-rule="evenodd" clip-rule="evenodd" d="M7.5 11C9.433 11 11 9.433 11 7.5C11 5.567 9.433 4 7.5 4C5.567 4 4 5.567 4 7.5C4 9.433 5.567 11 7.5 11ZM7.5 5.96875L5.96875 7.5L7.5 9.03125L9.03125 7.50017L7.5 5.96875Z" fill="currentColor"/><path fill-rule="evenodd" clip-rule="evenodd" d="M16.5 20C18.433 20 20 18.433 20 16.5C20 14.567 18.433 13 16.5 13C14.567 13 13 14.567 13 16.5C13 18.433 14.567 20 16.5 20ZM16.5 14.9688L14.9688 16.5L16.5 18.0312L18.0312 16.5002L16.5 14.9688Z" fill="#F0B90B"/></symbol><symbol viewBox="0 0 24 24" id="NftFi2C"><path fill-rule="evenodd" clip-rule="evenodd" d="M21 5H3V19H21V5ZM5.25999 12L9.50264 7.75732L13.7453 12L9.50264 16.2426L5.25999 12ZM18.25 7.99996H15.75V16H18.25V7.99996Z" fill="currentColor"/><path d="M7.38135 12L9.50267 9.87868L11.624 12L9.50267 14.1213L7.38135 12Z" fill="#F0B90B"/></symbol><symbol viewBox="0 0 24 24" id="P2P2C"><path fill-rule="evenodd" clip-rule="evenodd" d="M15 4H18.5H21V6.5V8.5H18.5V6.5H15V4ZM5.83333 9.99805C4.54467 9.99805 3.5 11.0427 3.5 12.3314V13.998H11.5V12.3314C11.5 11.0427 10.4553 9.99805 9.16667 9.99805H5.83333ZM14.8333 16C13.5447 16 12.5 17.0447 12.5 18.3333V20H20.5V18.3333C20.5 17.0447 19.4553 16 18.1667 16H14.8333ZM9 17.5H5.5V15.5H3V17.5V20H5.5H9V17.5ZM19 12.502C19 13.8827 17.8807 15.002 16.5 15.002C15.1193 15.002 14 13.8827 14 12.502C14 11.1212 15.1193 10.002 16.5 10.002C17.8807 10.002 19 11.1212 19 12.502ZM7.5 9C8.88071 9 10 7.88071 10 6.5C10 5.11929 8.88071 4 7.5 4C6.11929 4 5 5.11929 5 6.5C5 7.88071 6.11929 9 7.5 9Z" fill="currentColor"/><path d="M15 4H21V6.5H15V4Z" fill="#F0B90B"/><path d="M3 17.5H9V20H3V17.5Z" fill="#F0B90B"/><path d="M3 15.5H5.5V20H3V15.5Z" fill="#F0B90B"/><path d="M18.5 4H21V8.5H18.5V4Z" fill="#F0B90B"/></symbol><symbol viewBox="0 0 24 24" id="Pay2C"><path d="M3.00021 12.0071C3.94566 10.3408 5.45157 9.0966 7.21542 8.46875C7.23625 10.3834 7.82737 12.2804 8.92346 13.6849C8.55476 13.9375 8.19509 14.2429 7.8492 14.6049L6.86765 15.4983L8.35602 16.9855L9.41727 15.946C11.4041 13.843 13.4887 14.847 14.2827 15.6119L8.92346 21.0002L3 21L3.00021 12.0071Z" fill="currentColor"/><path fill-rule="evenodd" clip-rule="evenodd" d="M21 9C21 12.0932 18.6593 14.6398 15.6525 14.9649L15.1058 14.4383C14.4708 13.8265 13.383 13.1554 12.023 13.0243C11.5587 12.9796 11.0857 13.0003 10.6136 13.0939C9.61261 12.0218 9 10.5824 9 9C9 5.68629 11.6863 3 15 3C18.3137 3 21 5.68629 21 9ZM15 6.5L12.5 9L15 11.5L17.5 9L15 6.5Z" fill="#F0B90B"/></symbol><symbol viewBox="0 0 24 24" id="Research2C"><path fill-rule="evenodd" clip-rule="evenodd" d="M9.89658 1.87524L16.029 8.00769L11.231 12.8057L8.80596 10.3806L8.78002 10.4074C7.07479 12.1656 7.02167 15.0525 8.72798 16.8095C9.52621 17.6314 10.5546 18.0552 11.5901 18.0808H19.9849V21.0633H4.01538V18.0808H6.73253C6.69516 18.0442 6.65814 18.0071 6.62146 17.9693C4.28383 15.5622 4.62343 10.9389 6.94739 8.52204L5.09859 6.67324L6.45185 5.31998L5.04152 3.90965L7.16284 1.78833L8.57317 3.19866L9.89658 1.87524Z" fill="currentColor"/><path fill-rule="evenodd" clip-rule="evenodd" d="M16.2773 10.9941C17.9342 10.9941 19.2773 12.3373 19.2773 13.9941C19.2773 15.651 17.9342 16.9941 16.2773 16.9941C14.6205 16.9941 13.2773 15.651 13.2773 13.9941C13.2773 12.3373 14.6205 10.9941 16.2773 10.9941Z" fill="#F0B90B"/></symbol><symbol viewBox="0 0 20 22" id="Spot2C"> <path fill-rule="evenodd" clip-rule="evenodd" d="M12.0713 4.33333C10.1496 4.33333 8.53087 5.63044 8.04287 7.3969C10.7668 7.64831 12.9352 9.81677 13.1866 12.5407C14.9531 12.0527 16.2502 10.4339 16.2502 8.51225C16.2502 6.2043 14.3793 4.33333 12.0713 4.33333ZM11.6912 13.0711C11.6912 10.7631 9.82025 8.89215 7.5123 8.89215C5.20434 8.89215 3.33337 10.7631 3.33337 13.0711C3.33337 15.379 5.20434 17.25 7.5123 17.25C9.82025 17.25 11.6912 15.379 11.6912 13.0711ZM5.61279 13.0711L7.5123 14.9706L9.41181 13.0711L7.5123 11.1716L5.61279 13.0711Z" fill="currentColor"/> <path d="M8.33333 3.5H2.5V9.33333L8.33333 3.5Z" fill="#F0B90B"/> <path d="M11.6667 18.5H17.5V12.6667L11.6667 18.5Z" fill="#F0B90B"/></symbol><symbol viewBox="0 0 24 24" id="TradingBot2C"><path fill-rule="evenodd" clip-rule="evenodd" d="M4 7.5H20V11.4998H22V15.4998H20V20H4V15.4998H2V11.4998H4V7.5ZM15.5 13.1318C16.3284 13.1318 17 12.4603 17 11.6318C17 10.8034 16.3284 10.1318 15.5 10.1318C14.6716 10.1318 14 10.8034 14 11.6318C14 12.4603 14.6716 13.1318 15.5 13.1318ZM10 11.6318C10 12.4603 9.32843 13.1318 8.5 13.1318C7.67157 13.1318 7 12.4603 7 11.6318C7 10.8034 7.67157 10.1318 8.5 10.1318C9.32843 10.1318 10 10.8034 10 11.6318ZM15 15C15 16.6569 13.6569 18 12 18C10.3431 18 9 16.6569 9 15H15Z" fill="currentColor"/><path d="M10.5 5H13.5V7.5H10.5V5Z" fill="#F0B90B"/><path d="M9 4H15V6H9V4Z" fill="#F0B90B"/></symbol><symbol viewBox="0 0 24 24" id="account-f"><path fill-rule="evenodd" clip-rule="evenodd" d="M12 3C16.9706 3 21 7.02944 21 12C21 16.9706 16.9706 21 12 21C7.02944 21 3 16.9706 3 12C3 7.02944 7.02944 3 12 3ZM14.5 9.5C14.5 10.8807 13.3807 12 12 12C10.6193 12 9.5 10.8807 9.5 9.5C9.5 8.11929 10.6193 7 12 7C13.3807 7 14.5 8.11929 14.5 9.5ZM12 13.9961H8.66662C7.97115 13.9961 7.37518 14.7661 7.12537 15.5161C7.73252 16.4634 9.45831 17.9803 12 18.0023C14.5416 18.0243 16.3061 16.3616 16.8745 15.5161C16.6247 14.7661 16.0288 13.9961 15.3333 13.9961H12Z" fill="currentColor"/></symbol><symbol viewBox="0 0 101 100" id="affiliates-entry-2c"><path d="M68.7814 65.6297L65.7757 65.6297V87.4999L87.2465 87.5C91.4968 87.5 94.9423 84.0544 94.9423 79.8041V73.3256C94.9423 69.0753 91.4968 65.6298 87.2465 65.6298L84.1251 65.6297V61.8145C84.1251 57.5907 80.701 54.1667 76.4773 54.1667V57.9339C76.4773 62.1842 73.0317 65.6297 68.7814 65.6297Z" fill="#F0B90B"/><path fill-rule="evenodd" clip-rule="evenodd" d="M67.5608 55.9206C67.5609 57.0318 66.6613 57.9326 65.5515 57.9326L56.5441 57.9325V79.264H13.3999V65.8052C13.3999 56.0189 21.2898 48.0855 31.0631 48.0855L38.4162 48.0855C41.9256 48.0855 45.1969 49.1084 47.948 50.8728C49.9993 49.3634 52.5768 48.354 55.7919 48.1937C56.6225 48.0775 57.4856 48.0142 58.3778 48.0142L67.5604 48.014L67.5608 55.9206ZM31.0631 56.9453H38.4162C39.7985 56.9453 41.1068 57.2627 42.2724 57.8288C41.0634 60.2262 40.3824 62.936 40.3824 65.8052L40.3824 70.2351H22.215V65.8052C22.215 60.912 26.1765 56.9453 31.0631 56.9453Z" fill="currentColor"/><path fill-rule="evenodd" clip-rule="evenodd" d="M34.8434 19.9909C28.5129 19.9909 23.381 25.1228 23.381 31.4533C23.381 37.7838 28.5129 42.9157 34.8434 42.9157C41.1739 42.9157 46.3058 37.7838 46.3058 31.4533C46.3058 25.1228 41.1739 19.9909 34.8434 19.9909ZM34.8434 28.3272C33.1169 28.3272 31.7173 29.7268 31.7173 31.4533C31.7173 33.1798 33.1169 34.5794 34.8434 34.5794C36.5699 34.5794 37.9695 33.1798 37.9695 31.4533C37.9695 29.7268 36.5699 28.3272 34.8434 28.3272ZM62.4313 19.9909C56.1008 19.9909 50.9689 25.1228 50.9689 31.4533C50.9689 37.7838 56.1008 42.9157 62.4313 42.9157C68.7618 42.9157 73.8937 37.7838 73.8937 31.4533C73.8937 25.1228 68.7618 19.9909 62.4313 19.9909Z" fill="currentColor"/></symbol><symbol viewBox="0 0 24 24" id="api-f"><path fill-rule="evenodd" clip-rule="evenodd" d="M10 5C6.13401 5 3 8.13401 3 12C3 15.866 6.13401 19 10 19H13V16H16V13H13V11H16V8H13V5H10ZM21 5H18V19H21V5Z" fill="currentColor"/></symbol><symbol viewBox="0 0 24 24" id="app-download-f"><path fill-rule="evenodd" clip-rule="evenodd" d="M7.5 6V9H4.5V3H5H7.5H16H19V6V9H16V6H7.5ZM5 21H4.5V15H7.5V18H16V15H19V18V21H16H7.5H5ZM13.5088 12.0024L16.0176 12.0078L12.0088 16.0166L8 12.0078L10.5088 11.9832V8H13.5088V12.0024Z" fill="currentColor"/></symbol><symbol viewBox="0 0 24 24" id="crypto-f"><path fill-rule="evenodd" clip-rule="evenodd" d="M12 3C16.9706 3 21 7.02944 21 12C21 16.9706 16.9706 21 12 21C7.02944 21 3 16.9706 3 12C3 7.02944 7.02944 3 12 3ZM14.1642 18.5H12.5052V16.9617H11.4948V18.5H9.83585V16.9617H8.32773V7.03828H9.83585V5.5H11.4948V7.03828H12.5052V5.5H14.1642V7.08353C15.4611 7.29466 16.2152 8.2297 16.2152 9.58701C16.2152 10.9594 15.5969 11.5476 14.2848 11.7135V11.8039C15.6572 11.8794 16.5922 12.5731 16.5922 14.1265C16.5922 15.6497 15.5516 16.8863 14.1642 16.9617V18.5ZM13.0632 8.86311H10.4843V11.1102H13.0632C13.6363 11.1102 13.9832 10.8086 13.9832 10.2355V9.73782C13.9832 9.16473 13.6363 8.86311 13.0632 8.86311ZM13.4252 12.8596H10.4843V15.1369H13.4252C13.9983 15.1369 14.3602 14.8202 14.3602 14.2471V13.7494C14.3602 13.1763 13.9983 12.8596 13.4252 12.8596Z" fill="currentColor"/></symbol><symbol viewBox="0 0 24 24" id="earn-high-yield"><path d="M18 10H21V21H18V10Z" fill="#F0B90B"/><path d="M13 15H16V21H13V15Z" fill="currentColor"/><path d="M8 18H11V21H8V18Z" fill="currentColor"/><path d="M3 15H6V21H3V15Z" fill="currentColor"/><path fill-rule="evenodd" clip-rule="evenodd" d="M11.0195 3V8.01953L9.20715 6.20715L3 12.4143V9.58588L7.79294 4.79294L6 3H11.0195ZM21.0195 8.01953V3H16L17.7929 4.79294L11 11.5859L8.70712 9.29297L7.29291 10.7072L11 14.4143L19.2072 6.20715L21.0195 8.01953Z" fill="currentColor"/></symbol><symbol viewBox="0 0 24 24" id="earn-loans"><path d="M5 10H2V21H5V10Z" fill="currentColor"/><path d="M13.8663 14.2426C15.0379 15.4142 16.9374 15.4142 18.109 14.2426L13.8691 10H7V17C7 19.2091 8.79086 21 11 21H17.1323C19.8207 21 22.0002 18.8206 22.0002 16.1321L14.377 16.1313L11.5388 13.293L12.2278 12.6041L13.8663 14.2426Z" fill="currentColor"/><path fill-rule="evenodd" clip-rule="evenodd" d="M15 2L12 5L17.5 10L23 5L20 2H15ZM17.5 6.75L19 5.25L17.5 3.75L16 5.25L17.5 6.75Z" fill="#F0B90B"/></symbol><symbol viewBox="0 0 24 24" id="earn-overview"><path fill-rule="evenodd" clip-rule="evenodd" d="M12 9C9.79086 9 8 7.20914 8 5C8 2.79086 9.79086 1 12 1C14.2091 1 16 2.79086 16 5C16 7.20914 14.2091 9 12 9ZM12.0004 3.2222L10.2227 4.99997L12.0004 6.77775L13.7782 4.99997L12.0004 3.2222Z" fill="#F0B90B"/><path fill-rule="evenodd" clip-rule="evenodd" d="M6.89475 8.15379C7.95228 9.86204 9.84325 11 12 11C14.6124 11 16.8349 9.33038 17.6586 7H21.25L19.5 9.5C20.1962 10.3409 20.196 11.6946 20.1958 12.4666L20.1958 12.5L22.1667 13V15.25L17.6945 19.7221L19.0695 21.0972L17.125 23.0417L14.8333 20.75H9.44457L7.04167 23.1529L5.09712 21.2084L6.71394 19.5915L6.09285 18.9705C5.02845 18.0057 4.26765 16.7121 3.97086 15.25H2V13.4167H3.84837C3.99288 11.2211 5.16812 9.30701 6.89475 8.15379ZM18.5 12.75C18.5 13.4404 17.9404 14 17.25 14C16.5596 14 16 13.4404 16 12.75C16 12.0596 16.5596 11.5 17.25 11.5C17.9404 11.5 18.5 12.0596 18.5 12.75Z" fill="currentColor"/></symbol><symbol viewBox="0 0 24 24" id="earn-s24"><path d="M11.3363 8.57657C10.5672 8.72738 10.2354 9.13457 10.2354 9.72274C10.2354 10.2958 10.5672 10.5974 11.3363 10.8086V8.57657Z" fill="currentColor"/><path d="M12.6785 15.3933C13.3873 15.1972 13.7191 14.7297 13.7191 14.1566C13.7191 13.7193 13.5382 13.2668 12.6785 13.0104V15.3933Z" fill="currentColor"/><path fill-rule="evenodd" clip-rule="evenodd" d="M12 21C16.9706 21 21 16.9706 21 12C21 7.02944 16.9706 3 12 3C7.02944 3 3 7.02944 3 12C3 16.9706 7.02944 21 12 21ZM12.8595 17.0522V18.5H11.1402V17.1125C9.61705 16.9768 8.60661 16.3585 7.85255 15.529L9.20985 14.2923C9.78294 14.8956 10.4918 15.3028 11.3363 15.4234V12.7088C9.07412 12.2413 8.15417 11.2459 8.15417 9.78306C8.15417 8.19954 9.19477 7.14385 11.1402 6.91763V5.5H12.8595V6.91763C14.066 7.05336 14.9558 7.52088 15.6194 8.27494L14.247 9.5116C13.885 9.10441 13.4024 8.77262 12.6785 8.60673V11.1102C14.7899 11.5928 15.8003 12.4524 15.8003 13.9907C15.8003 15.4687 14.8653 16.7204 12.8595 17.0522Z" fill="currentColor"/></symbol><symbol viewBox="0 0 24 24" id="earn-simple-earn"><path fill-rule="evenodd" clip-rule="evenodd" d="M9 21C5.68629 21 3 18.3137 3 15C3 11.6863 5.68629 9 9 9C12.3137 9 15 11.6863 15 15C15 18.3137 12.3137 21 9 21ZM8.99994 12.3332L6.33327 14.9999L8.99994 17.6666L11.6666 14.9999L8.99994 12.3332Z" fill="currentColor"/><path fill-rule="evenodd" clip-rule="evenodd" d="M16.9445 10.8889C14.766 10.8889 13 9.12292 13 6.94446C13 4.76599 14.766 3 16.9445 3C19.1229 3 20.8889 4.76599 20.8889 6.94446C20.8889 9.12292 19.1229 10.8889 16.9445 10.8889ZM16.9449 5.19165L15.1918 6.94474L16.9449 8.69783L18.698 6.94474L16.9449 5.19165Z" fill="#F0B90B"/></symbol><symbol viewBox="0 0 24 24" id="icon-h-coinmarketcap"><path fill-rule="evenodd" clip-rule="evenodd" d="M19.392 13.9478C19.0378 14.173 18.6265 14.1955 18.3066 14.0154C17.9068 13.7902 17.6783 13.2724 17.6783 12.5407V10.368C17.6783 9.30985 17.2556 8.56687 16.5473 8.36424C15.3477 8.01527 14.4452 9.46745 14.1139 10.0078L12.0003 13.385V9.25356C11.9775 8.30795 11.6576 7.73383 11.0635 7.56498C10.6751 7.4524 10.081 7.49743 9.50979 8.35298L4.78005 15.8503C4.15171 14.6683 3.8204 13.3399 3.8204 12.0003C3.8204 7.48618 7.48766 3.81632 12.0003 3.81632C16.513 3.81632 20.1802 7.48618 20.1802 12.0003C20.1802 12.0116 20.1802 12.0116 20.1802 12.0228C20.1802 12.0341 20.1802 12.0341 20.1802 12.0454C20.2145 12.9234 19.9289 13.6101 19.392 13.9478ZM21.9967 12.0003V11.9778V11.9553C21.9625 6.46177 17.4955 2.00391 12.0003 2.00391C6.4823 2.00391 2.00391 6.48428 2.00391 12.0003C2.00391 17.5164 6.4823 21.9967 12.0003 21.9967C14.5251 21.9967 16.9471 21.0511 18.7979 19.3288C19.1635 18.9911 19.1863 18.4169 18.8436 18.0455C18.5123 17.6852 17.9411 17.6515 17.5755 17.9892L17.564 18.0004C16.0674 19.3963 14.0682 20.1843 12.0003 20.1843C9.58976 20.1843 7.41911 19.1261 5.91108 17.4601L10.1838 10.7057V13.824C10.1838 15.3212 10.7779 15.8053 11.2692 15.9404C11.7604 16.0867 12.5144 15.9854 13.3141 14.7133L15.6562 10.9647C15.7361 10.8408 15.8047 10.7395 15.8618 10.6495V12.5407C15.8618 13.9366 16.433 15.051 17.4155 15.6026C18.3066 16.098 19.4262 16.0529 20.3402 15.4901C21.4598 14.8034 22.0539 13.5313 21.9967 12.0003Z" fill="currentColor"/></symbol><symbol viewBox="0 0 24 24" id="icon-h-discord"><path d="M8.81861 12.4809C8.81861 13.1691 9.32333 13.7307 9.94218 13.7307C10.567 13.7307 11.0657 13.1689 11.0657 12.4809C11.0783 11.7927 10.5666 11.2311 9.94218 11.2311C9.31104 11.2311 8.81861 11.7929 8.81861 12.4809Z" fill="currentColor"/><path d="M12.9657 12.4809C12.9657 13.1691 13.4717 13.7307 14.0898 13.7307C14.7209 13.7307 15.2134 13.1689 15.2134 12.4809C15.226 11.7927 14.7142 11.2311 14.0898 11.2311C13.4588 11.2311 12.9657 11.7929 12.9657 12.4809Z" fill="currentColor"/><path fill-rule="evenodd" clip-rule="evenodd" d="M22 12C22 17.5228 17.5228 22 12 22C6.47715 22 2 17.5228 2 12C2 6.47715 6.47715 2 12 2C17.5228 2 22 6.47715 22 12ZM13.7742 7.27979C14.6769 7.43114 15.5417 7.70285 16.3559 8.07514H16.3582C17.7718 10.1392 18.4738 12.4746 18.2021 15.1636C17.122 15.9526 16.0679 16.4322 15.039 16.7479C14.7862 16.4071 14.5592 16.0408 14.3636 15.6559C14.736 15.5169 15.0901 15.3465 15.4302 15.1446C15.3634 15.0969 15.2993 15.0455 15.2338 14.9929C15.2131 14.9763 15.1923 14.9595 15.1711 14.9428C13.1385 15.8833 10.9098 15.8833 8.852 14.9428C8.76888 15.0119 8.68087 15.0818 8.59287 15.1446C8.93365 15.3465 9.28729 15.5169 9.65958 15.6559C9.464 16.0409 9.237 16.4071 8.98415 16.7479C7.95467 16.4323 6.90681 15.9526 5.82103 15.1636C5.60017 12.8407 6.04203 10.4864 7.67688 8.07514C8.48544 7.70236 9.35015 7.43135 10.2591 7.27979C10.3652 7.47536 10.4987 7.74078 10.5867 7.94893C11.5334 7.80993 12.4867 7.80993 13.4466 7.94893C13.5347 7.74078 13.6604 7.47536 13.7742 7.27979Z" fill="currentColor"/></symbol><symbol viewBox="0 0 24 24" id="icon-h-facebook"><path d="M22 12.0698C22 17.0832 18.3413 21.2485 13.5627 22.0107V14.9791H15.8987L16.336 12.0698H13.5733V10.1804C13.5733 9.38594 13.9573 8.60225 15.1947 8.60225H16.464V6.13312C16.464 6.13312 15.312 5.93988 14.224 5.93988C11.9413 5.93988 10.4373 7.33548 10.4373 9.84756V12.0698H7.89867V14.9791H10.4373V22.0107C5.65867 21.2378 2 17.0832 2 12.0698C2 6.50886 6.48 2 12.0053 2C17.5307 2 22 6.50886 22 12.0698Z" fill="currentColor"/></symbol><symbol viewBox="0 0 24 24" id="icon-h-instagram"><path fill-rule="evenodd" clip-rule="evenodd" d="M12.0001 7.38184C9.44926 7.38184 7.38184 9.44926 7.38184 12.0001C7.38184 14.551 9.44926 16.6184 12.0001 16.6184C14.551 16.6184 16.6184 14.551 16.6184 12.0001C16.6184 9.44926 14.551 7.38184 12.0001 7.38184ZM12.0001 15.0036C10.3441 15.0036 8.99669 13.6561 8.99669 12.0001C8.99669 10.3441 10.3441 8.99669 12.0001 8.99669C13.6561 8.99669 15.0036 10.3441 15.0036 12.0001C15.0036 13.6561 13.6561 15.0036 12.0001 15.0036Z" fill="currentColor"/><path d="M17.8836 7.1967C17.8836 7.79317 17.4001 8.2767 16.8036 8.2767C16.2072 8.2767 15.7236 7.79317 15.7236 7.1967C15.7236 6.60023 16.2072 6.1167 16.8036 6.1167C17.4001 6.1167 17.8836 6.60023 17.8836 7.1967Z" fill="currentColor"/><path fill-rule="evenodd" clip-rule="evenodd" d="M12 3C9.552 3 9.25371 3.01029 8.28686 3.05143C7.33029 3.10286 6.672 3.24686 6.10629 3.47314C5.50971 3.69943 5.016 4.008 4.512 4.512C4.008 5.016 3.69943 5.50971 3.47314 6.10629C3.24686 6.672 3.10286 7.33029 3.05143 8.28686C3.01029 9.25371 3 9.552 3 12C3 14.448 3.01029 14.7463 3.05143 15.7131C3.09257 16.6697 3.24686 17.328 3.47314 17.8937C3.69943 18.4903 4.008 18.984 4.512 19.488C5.016 19.992 5.50971 20.3006 6.10629 20.5269C6.68229 20.7531 7.33029 20.8971 8.28686 20.9486C9.24343 20.9897 9.552 21 12 21C14.448 21 14.7463 20.9897 15.7131 20.9486C16.6697 20.9074 17.328 20.7531 17.8937 20.5269C18.4903 20.3006 18.984 19.992 19.488 19.488C19.992 18.984 20.3006 18.4903 20.5269 17.8937C20.7531 17.3177 20.8971 16.6697 20.9486 15.7131C20.9897 14.7566 21 14.448 21 12C21 9.552 20.9897 9.25371 20.9486 8.28686C20.9074 7.33029 20.7531 6.672 20.5269 6.10629C20.3006 5.50971 19.992 5.016 19.488 4.512C18.984 4.008 18.4903 3.69943 17.8937 3.47314C17.3177 3.24686 16.6697 3.10286 15.7131 3.05143C14.7463 3.01029 14.448 3 12 3ZM12 4.62514C14.4069 4.62514 14.6846 4.63543 15.6411 4.67657C16.5154 4.71771 16.9989 4.86171 17.3074 4.98514C17.7291 5.14971 18.0274 5.34514 18.3463 5.65371C18.6651 5.97257 18.8606 6.27086 19.0149 6.69257C19.1383 7.01143 19.2823 7.48457 19.3234 8.35886C19.3646 9.30514 19.3749 9.59314 19.3749 12C19.3749 14.4069 19.3646 14.6846 19.3234 15.6411C19.2823 16.5154 19.1383 16.9989 19.0149 17.3074C18.8503 17.7291 18.6549 18.0274 18.3463 18.3463C18.0274 18.6651 17.7291 18.8606 17.3074 19.0149C16.9886 19.1383 16.5154 19.2823 15.6411 19.3234C14.6949 19.3646 14.4069 19.3749 12 19.3749C9.59314 19.3749 9.31543 19.3646 8.35886 19.3234C7.48457 19.2823 7.00114 19.1383 6.69257 19.0149C6.27086 18.8503 5.97257 18.6549 5.65371 18.3463C5.33486 18.0274 5.13943 17.7291 4.98514 17.3074C4.86171 16.9886 4.71771 16.5154 4.67657 15.6411C4.63543 14.6949 4.62514 14.4069 4.62514 12C4.62514 9.59314 4.63543 9.31543 4.67657 8.35886C4.71771 7.48457 4.86171 7.00114 4.98514 6.69257C5.14971 6.27086 5.34514 5.97257 5.65371 5.65371C5.97257 5.33486 6.27086 5.13943 6.69257 4.98514C7.01143 4.86171 7.48457 4.71771 8.35886 4.67657C9.31543 4.63543 9.59314 4.62514 12 4.62514Z" fill="currentColor"/></symbol><symbol viewBox="0 0 24 24" id="icon-h-reddit"><path d="M9.71176 11.9941C10.2872 11.9941 10.756 12.463 10.756 13.0384C10.756 13.6138 10.2872 14.0827 9.71176 14.0827C9.13634 14.0827 8.66748 13.6138 8.66748 13.0384C8.66748 12.463 9.13634 11.9941 9.71176 11.9941Z" fill="currentColor"/><path d="M12.0028 16.0217C12.6847 16.0217 13.6438 15.8619 14.0913 15.4143C14.1979 15.3078 14.3684 15.3078 14.4749 15.4037C14.5815 15.5102 14.5815 15.6807 14.4749 15.7873C13.761 16.5012 12.4077 16.5545 12.0028 16.5545C11.5978 16.5545 10.2445 16.5012 9.5306 15.7979C9.42404 15.6914 9.42404 15.5209 9.5306 15.4143C9.63716 15.3078 9.80766 15.3078 9.91421 15.4143C10.3618 15.8619 11.3208 16.0217 12.0028 16.0217Z" fill="currentColor"/><path d="M13.2495 13.0492C13.2495 12.4737 13.7184 12.0049 14.2938 12.0049C14.8585 12.0049 15.3274 12.4737 15.3381 13.0492C15.3381 13.6246 14.8692 14.0934 14.2938 14.0934C13.7184 14.0934 13.2495 13.6246 13.2495 13.0492Z" fill="currentColor"/><path fill-rule="evenodd" clip-rule="evenodd" d="M12.003 2.00977C6.48328 2.00977 2.00781 6.48523 2.00781 12.005C2.00781 17.5247 6.48328 22.0002 12.003 22.0002C17.5227 22.0002 21.9982 17.5354 21.9982 12.005C21.9876 6.48523 17.5227 2.00977 12.003 2.00977ZM17.7998 13.3369C17.8211 13.4755 17.8318 13.6247 17.8318 13.7738C17.8318 16.0222 15.2211 17.8337 12.003 17.8337C8.78494 17.8337 6.17426 16.0222 6.17426 13.7738C6.17426 13.6247 6.18491 13.4755 6.20622 13.3369C5.69474 13.1132 5.3431 12.6017 5.3431 12.005C5.3431 11.2058 5.99311 10.5451 6.80295 10.5451C7.19722 10.5451 7.54886 10.6943 7.81526 10.95C8.82756 10.2148 10.2235 9.75658 11.7792 9.71395C11.7792 9.69264 12.5145 6.22949 12.5145 6.22949C12.5145 6.16555 12.5571 6.10162 12.6104 6.06965C12.6637 6.02703 12.7383 6.01637 12.8129 6.02703L15.2317 6.54916C15.4022 6.20818 15.7539 5.96309 16.1588 5.96309C16.7342 5.96309 17.2031 6.42129 17.2031 7.00737C17.2031 7.59344 16.7342 8.05164 16.1588 8.05164C15.6047 8.05164 15.1465 7.61475 15.1252 7.06064L12.9514 6.59179L12.2907 9.71395C13.8252 9.76723 15.1998 10.2361 16.1908 10.95C16.4572 10.6943 16.8088 10.5345 17.2031 10.5345C18.0129 10.5345 18.6629 11.1845 18.6629 11.9943C18.6629 12.6017 18.3006 13.1025 17.7998 13.3369Z" fill="currentColor"/></symbol><symbol viewBox="0 0 24 24" id="icon-h-tiktok"><path fill-rule="evenodd" clip-rule="evenodd" d="M15.5168 3C15.8138 5.55428 17.2395 7.07713 19.7181 7.23914V10.112C18.2817 10.2524 17.0234 9.78262 15.56 8.89699V14.2702C15.56 21.096 8.11856 23.2291 5.12686 18.3365C3.2044 15.1882 4.38164 9.66382 10.5486 9.44241V12.4719C10.0788 12.5475 9.5766 12.6663 9.11759 12.8229C7.74594 13.2873 6.96832 14.1568 7.18433 15.6904C7.60014 18.6281 12.9895 19.4975 12.5413 13.7571V3.0054H15.5168V3Z" fill="currentColor"/></symbol><symbol viewBox="0 0 24 24" id="icon-h-youtube"><path d="M22.5574 6.94689C22.3051 6.04851 21.5602 5.33208 20.6111 5.09327C18.8931 4.66113 12.0091 4.66113 12.0091 4.66113C12.0091 4.66113 5.113 4.66113 3.39499 5.09327C2.44589 5.34345 1.71303 6.04851 1.44872 6.94689C0.992188 8.58444 0.992188 11.996 0.992188 11.996C0.992188 11.996 0.992188 15.4076 1.44872 17.0452C1.70102 17.9549 2.44589 18.66 3.39499 18.8988C5.113 19.3309 11.997 19.3309 11.997 19.3309C11.997 19.3309 18.8811 19.3309 20.5991 18.8988C21.5362 18.66 22.2931 17.9549 22.5454 17.0452C23.0019 15.4076 23.0019 11.996 23.0019 11.996C23.0019 11.996 23.0139 8.58444 22.5574 6.94689ZM9.75042 15.1006V8.90286L15.5051 11.996L9.75042 15.1006Z" fill="currentColor"/></symbol><symbol viewBox="0 0 24 24" id="icon-more-f"> <path d="M10 10H14V14H10V10Z" fill="currentColor"/> <path d="M17 10H21V14H17V10Z" fill="currentColor"/> <path d="M3 10H7V14H3V10Z" fill="currentColor"/></symbol><symbol viewBox="0 0 24 24" id="icon-social-telegram-f"><path fill-rule="evenodd" clip-rule="evenodd" d="M22 12C22 17.5228 17.5228 22 12 22C6.47715 22 2 17.5228 2 12C2 6.47715 6.47715 2 12 2C17.5228 2 22 6.47715 22 12ZM12.3587 9.38241C11.3861 9.78697 9.44215 10.6243 6.52695 11.8944C6.05357 12.0827 5.80559 12.2668 5.78301 12.4469C5.74486 12.7512 6.12597 12.8711 6.64493 13.0342C6.71553 13.0564 6.78867 13.0794 6.86365 13.1038C7.37424 13.2698 8.06106 13.464 8.41811 13.4717C8.74199 13.4787 9.10348 13.3451 9.50257 13.0711C12.2263 11.2325 13.6324 10.3031 13.7206 10.2831C13.7829 10.269 13.8692 10.2512 13.9277 10.3032C13.9861 10.3551 13.9804 10.4536 13.9742 10.48C13.9365 10.6409 12.4405 12.0317 11.6663 12.7515C11.425 12.9758 11.2538 13.135 11.2188 13.1713C11.1404 13.2528 11.0605 13.3298 10.9837 13.4038C10.5093 13.8611 10.1536 14.204 11.0034 14.764C11.4117 15.0331 11.7385 15.2556 12.0645 15.4776C12.4205 15.72 12.7756 15.9619 13.2351 16.263C13.3521 16.3398 13.4639 16.4195 13.5728 16.4971C13.9871 16.7925 14.3593 17.0578 14.8192 17.0155C15.0864 16.9909 15.3624 16.7397 15.5026 15.9903C15.8339 14.2193 16.4851 10.382 16.6356 8.80078C16.6487 8.66224 16.6322 8.48494 16.6188 8.40711C16.6055 8.32928 16.5777 8.21839 16.4765 8.1363C16.3567 8.03908 16.1717 8.01858 16.089 8.02004C15.7129 8.02666 15.1358 8.22731 12.3587 9.38241Z" fill="currentColor"/></symbol><symbol viewBox="0 0 24 24" id="icon-social-whatsapp"><path fill-rule="evenodd" clip-rule="evenodd" d="M2 12.0001C2 6.47741 6.47741 2 12.0001 2C17.5229 2 22.0003 6.47702 22.0003 12.0001C22.0003 17.5233 17.5229 22.0003 12.0001 22.0003C10.07 22.0003 8.26767 21.4533 6.73961 20.5061L2.7126 21.6044L4.0252 18.034C2.75429 16.3568 2 14.2665 2 12.0001ZM8.71044 6.73845C8.50525 6.6267 8.25317 6.59226 8.03113 6.6736C7.87284 6.71683 7.73947 6.81906 7.62479 6.93374L7.24446 7.31517C7.22095 7.33702 7.20621 7.36488 7.19146 7.39276C7.18346 7.40788 7.17546 7.423 7.16606 7.43718C6.86231 7.84645 6.68424 8.34402 6.64247 8.85112C6.6018 9.22778 6.60839 9.61177 6.67544 9.9855C6.75202 10.5124 6.94072 11.0173 7.17741 11.4918C7.65227 12.4151 8.31985 13.2219 9.02481 13.9771C9.09764 14.0514 9.16958 14.1267 9.24154 14.2021C9.41281 14.3814 9.58416 14.5608 9.76787 14.7275C10.0456 14.996 10.338 15.2492 10.6384 15.4921C10.7022 15.5396 10.7657 15.5877 10.8291 15.6357C11.0378 15.7938 11.2465 15.9519 11.4691 16.0905C11.6584 16.2229 11.8591 16.3375 12.0596 16.4521C12.1055 16.4783 12.1514 16.5045 12.1971 16.5309C12.3752 16.6214 12.554 16.7108 12.7346 16.7965C12.7983 16.8218 12.8614 16.8486 12.9244 16.8754C13.0616 16.9338 13.1988 16.9921 13.3421 17.0343C13.4534 17.08 13.5689 17.1134 13.6844 17.1467C13.7366 17.1617 13.7887 17.1768 13.8404 17.193C13.9023 17.2056 13.9637 17.2206 14.0251 17.2357C14.1309 17.2615 14.2365 17.2874 14.3446 17.3011L14.3495 17.3018C14.5402 17.3316 14.7317 17.3615 14.9253 17.363C15.0796 17.3795 15.236 17.3743 15.3885 17.3432C15.4196 17.3366 15.4509 17.3304 15.4822 17.3242C15.5894 17.303 15.6968 17.2818 15.7992 17.2424C16.0843 17.1527 16.3536 17.0127 16.5939 16.8354C16.6612 16.8033 16.7126 16.7504 16.764 16.6974C16.7843 16.6765 16.8046 16.6556 16.8259 16.636C16.8678 16.5929 16.9118 16.5512 16.956 16.5095C17.082 16.3903 17.2086 16.2706 17.2875 16.1143C17.3395 15.9974 17.3806 15.8736 17.3853 15.745V15.7061C17.3791 15.4892 17.2912 15.2745 17.1366 15.121C16.83 14.8135 16.5228 14.5065 16.2157 14.1997C16.0237 14.0077 15.8317 13.8159 15.6398 13.6239C15.6183 13.6029 15.597 13.5813 15.5756 13.5597C15.4778 13.4607 15.3786 13.3603 15.2492 13.3044C15.0492 13.2091 14.8095 13.1948 14.6022 13.2739C14.4651 13.3183 14.3446 13.4015 14.2438 13.5033C13.9701 13.7759 13.6975 14.0489 13.4249 14.3222C13.1366 14.1669 12.8497 14.0093 12.5756 13.8301C12.111 13.5473 11.6827 13.2062 11.2947 12.8255C10.8729 12.4114 10.4955 11.9494 10.187 11.4445C10.1786 11.4312 10.1701 11.4179 10.1617 11.4046C10.0817 11.2787 10.0018 11.1529 9.93055 11.0217C9.90322 10.9716 9.87455 10.9223 9.84588 10.8729C9.7923 10.7807 9.73873 10.6884 9.69386 10.5915C9.84251 10.4406 9.99255 10.291 10.1426 10.1413C10.2374 10.0467 10.3322 9.95215 10.4267 9.85726C10.5047 9.78471 10.5732 9.70264 10.6373 9.618C10.733 9.46704 10.7953 9.29043 10.7872 9.10943C10.7898 8.89032 10.6912 8.67818 10.5388 8.52356C10.2867 8.27134 10.0345 8.01922 9.78232 7.7671C9.53 7.51487 9.27768 7.26264 9.02554 7.01032C9.00722 6.99234 8.98909 6.97401 8.97094 6.95566C8.8911 6.87493 8.81074 6.79368 8.71044 6.73845Z" fill="currentColor"/></symbol><symbol viewBox="0 0 24 24" id="icon-social-x-f"><path d="M3.04371 3.57629L9.99338 12.8687L3 20.4237H4.57397L10.6968 13.8092L15.6437 20.4237H21L13.6593 10.6087L20.169 3.57629H18.5951L12.9562 9.6682L8.39998 3.57629H3.04371ZM5.35834 4.73568H7.81903L18.685 19.2642H16.2243L5.35852 4.73568H5.35834Z" fill="currentColor"/></symbol><symbol viewBox="0 0 24 24" id="id-f"><path fill-rule="evenodd" clip-rule="evenodd" d="M3 5H21V19H3V5ZM10 10.0003C10 11.1048 9.10457 12.0003 8 12.0003C6.89543 12.0003 6 11.1048 6 10.0003C6 8.8957 6.89543 8.00027 8 8.00027C9.10457 8.00027 10 8.8957 10 10.0003ZM13 9.00027H19V11.5003H13V9.00027ZM19 13.4997H13V15.9997H19V13.4997ZM11 13.4997V15.9997H5V13.4997H11Z" fill="currentColor"/></symbol><symbol viewBox="0 0 24 24" id="language-f"><path fill-rule="evenodd" clip-rule="evenodd" d="M15.2307 20.4027C18.2316 19.2481 20.4577 16.5321 20.9137 13.25H16.9718C16.8248 16.1102 16.1791 18.638 15.2307 20.4027ZM14.473 13.25C14.2952 17.3518 13.2556 20.5 11.9998 20.5C10.744 20.5 9.70447 17.3518 9.52667 13.25H14.473ZM14.473 10.75H9.52667C9.70447 6.64821 10.744 3.5 11.9998 3.5C13.2556 3.5 14.2952 6.64821 14.473 10.75ZM16.9718 10.75H20.9137C20.4577 7.46786 18.2316 4.75191 15.2307 3.59731C16.1791 5.36198 16.8248 7.88979 16.9718 10.75ZM7.03566 10.75C7.18282 7.88774 7.82928 5.35836 8.77882 3.59353C5.77291 4.74598 3.54249 7.46427 3.08594 10.75H7.03566ZM7.03566 13.25H3.08594C3.54249 16.5357 5.77291 19.254 8.77882 20.4065C7.82928 18.6416 7.18282 16.1123 7.03566 13.25Z" fill="currentColor"/></symbol><symbol viewBox="0 0 24 24" id="list-grid-1c"> <path fill-rule="evenodd" clip-rule="evenodd" d="M4 4V11H11V4H4ZM13 11V4H20V11H13ZM16.5 20.7426L12.2573 16.5L16.5 12.2574L20.7426 16.5L16.5 20.7426ZM4 13H11V20H4V13Z" fill="currentColor"/></symbol><symbol viewBox="0 0 24 24" id="log-out-f"><path fill-rule="evenodd" clip-rule="evenodd" d="M3.22266 6V3H6.22266H11.7227V6L6.22266 6L6.22266 18H11.7227V21H6.22266H3.22266V18V6ZM8.59134 13.5V10.5L15.1783 10.5L15.1782 5.98418L21.2079 12L15.1783 17.9797L15.1783 13.5H8.59134Z" fill="currentColor"/></symbol><symbol viewBox="0 0 24 24" id="megadrop-2c-blk"> <path fill-rule="evenodd" clip-rule="evenodd" d="M18.4963 15.7393L5.5001 15.7394L5.5 22.7378L18.4962 22.7377L18.4963 15.7393ZM9.11646 19.4231L11.2126 18.4244L11.923 16.6392L12.7775 18.4329L14.8426 19.2546L12.8115 20.2223L12.0888 22.0385L11.2466 20.2707L9.11646 19.4231Z" fill="#F0B90B"/> <path fill-rule="evenodd" clip-rule="evenodd" d="M20 9.26172C20 8.92306 19.979 8.58931 19.9381 8.26172C19.446 4.31541 16.0796 1.26172 12 1.26172C7.92038 1.26172 4.55399 4.31541 4.06189 8.26172C4.02104 8.58931 4 8.92306 4 9.26172V11.2617L6.9941 14.2554H11.2367L8.24309 11.2617H15.7573L12.7637 14.2554H17.0063L20 11.2617V9.26172ZM10.4589 4.54153C8.41223 5.21895 7.1827 7.1119 7.10002 8.26172H10.4589V4.54153ZM13.5374 8.26172H16.9C16.5394 6.48553 15.2373 5.05125 13.5374 4.50251V8.26172Z" fill="currentColor"/></symbol><symbol viewBox="0 0 24 24" id="new-user-zone-new-g"><path fill-rule="evenodd" clip-rule="evenodd" d="M14.4506 14.4506C19.2321 9.66925 22.0109 4.69591 20.6574 3.34238C19.8978 2.58285 17.9985 3.12456 15.6328 4.59118C16.2192 4.87922 16.7663 5.23468 17.2638 5.64728C17.7491 5.49668 18.1088 5.50483 18.3019 5.69788C19.0753 6.47132 16.8808 9.91982 13.4003 13.4003C9.91981 16.8808 6.47131 19.0753 5.69787 18.3019C5.50482 18.1088 5.49667 17.7491 5.64728 17.2638C5.23468 16.7663 4.87921 16.2192 4.59117 15.6328C3.12456 17.9985 2.58285 19.8978 3.34238 20.6574C4.69591 22.0109 9.66925 19.2321 14.4506 14.4506ZM14.2384 5.62993C13.5379 5.38376 12.7845 5.24988 11.9999 5.24988C8.27196 5.24988 5.24988 8.27196 5.24988 11.9999C5.24988 12.7477 5.37149 13.4671 5.59601 14.1394C5.7729 14.6691 6.01368 15.1696 6.3092 15.6317C6.33299 15.6689 6.35713 15.7058 6.38163 15.7425C6.63746 16.1258 6.93148 16.4814 7.25824 16.804L8.18038 15.8818C9.38255 15.0571 10.8457 13.8336 12.3396 12.3397C13.8336 10.8458 15.0571 9.38259 15.8818 8.18042L16.804 7.25824C16.4814 6.93148 16.1258 6.63747 15.7425 6.38163C15.7058 6.35714 15.6689 6.333 15.6317 6.30921C15.1985 6.03216 14.7315 5.80322 14.2384 5.62993ZM11.889 18.749C11.9259 18.7496 11.9629 18.7499 11.9999 18.7499C15.7278 18.7499 18.7499 15.7278 18.7499 11.9999C18.7499 11.9629 18.7496 11.9259 18.749 11.889C17.8074 13.0804 16.7163 14.3063 15.5113 15.5113C14.3063 16.7163 13.0804 17.8074 11.889 18.749Z" fill="currentColor"/><rect x="7.99988" y="-0.00012207" width="16" height="8" rx="4" fill="#F6465D"/><path d="M11.6594 3.85188L11.2274 2.98188H11.2094V5.99988H10.4594V1.81188H11.3294L12.5894 3.95988L13.0214 4.82988H13.0394V1.81188H13.7894V5.99988H12.9194L11.6594 3.85188ZM15.7499 6.07188C14.8259 6.07188 14.2739 5.42988 14.2739 4.42788C14.2739 3.43788 14.8079 2.79588 15.7259 2.79588C16.7039 2.79588 17.1539 3.51588 17.1539 4.37388V4.62588H15.0719V4.70388C15.0719 5.15388 15.3299 5.45988 15.8339 5.45988C16.2119 5.45988 16.4399 5.27988 16.6319 5.03388L17.0459 5.49588C16.7879 5.84988 16.3319 6.07188 15.7499 6.07188ZM15.7379 3.37188C15.3359 3.37188 15.0719 3.67188 15.0719 4.10388V4.15188H16.3559V4.09788C16.3559 3.66588 16.1339 3.37188 15.7379 3.37188ZM17.2543 2.86788H17.9923L18.3103 4.15788L18.5563 5.23188H18.5803L18.8683 4.15788L19.2343 2.86788H19.9303L20.3083 4.15788L20.6023 5.23188H20.6263L20.8723 4.15788L21.1843 2.86788H21.8983L21.0403 5.99988H20.2123L19.8103 4.61988L19.5763 3.76788H19.5583L19.3303 4.61988L18.9343 5.99988H18.1183L17.2543 2.86788Z" fill="white"/></symbol><symbol viewBox="0 0 24 24" id="notification-f"><path fill-rule="evenodd" clip-rule="evenodd" d="M12 3C8.13401 3 5 6.13401 5 10L5 13L4 14V16H5L19 16H20L20 14L19 13V10C19 6.13401 15.866 3 12 3ZM12 21C9.94965 21 8.18757 19.7659 7.41602 18H16.5839C15.8124 19.7659 14.0503 21 12 21Z" fill="currentColor"/></symbol><symbol viewBox="0 0 24 24" id="orders-f"><path fill-rule="evenodd" clip-rule="evenodd" d="M5 3H19V21L15.5 18L12 21L8.5 18L5 21V3ZM8 7H12V9.5H8V7ZM12 12H8V14.5H12V12ZM14 7H16.5V9.5H14V7ZM16.5 12H14V14.5H16.5V12Z" fill="currentColor"/></symbol><symbol viewBox="0 0 24 24" id="referral-f"><path fill-rule="evenodd" clip-rule="evenodd" d="M11 8.5C11 10.433 9.433 12 7.5 12C5.567 12 4 10.433 4 8.5C4 6.567 5.567 5 7.5 5C9.433 5 11 6.567 11 8.5ZM2 17C2 15.3431 3.34315 14 5 14H10C11.6569 14 13 15.3431 13 17V20H2V17ZM16.5 16V13H13.5V10H16.5V7H19.5V10H22.5V13H19.5V16H16.5Z" fill="currentColor"/></symbol><symbol viewBox="0 0 24 24" id="reward-center-f"><path fill-rule="evenodd" clip-rule="evenodd" d="M3 5H21V9C19.3431 9 18 10.3431 18 12C18 13.6569 19.3431 15 21 15V19H3V15C4.65685 15 6 13.6569 6 12C6 10.3431 4.65685 9 3 9V5ZM15.5 7.5H13V16.5H15.5V7.5Z" fill="currentColor"/></symbol><symbol viewBox="0 0 24 24" id="search-f"> <path fill-rule="evenodd" clip-rule="evenodd" d="M11 6C13.7614 6 16 8.23858 16 11C16 13.7614 13.7614 16 11 16C8.23857 16 6 13.7614 6 11C6 8.23858 8.23858 6 11 6ZM11 3C15.4183 3 19 6.58172 19 11C19 12.3907 18.6451 13.6985 18.021 14.8379L21.0915 17.9086L19.5006 19.4995L17.9097 21.0904L14.8396 18.0201C13.6999 18.6448 12.3914 19 11 19C6.58172 19 3 15.4183 3 11C3 6.58172 6.58172 3 11 3Z" fill="currentColor"/></symbol><symbol viewBox="0 0 24 24" id="security-f"><path fill-rule="evenodd" clip-rule="evenodd" d="M4 4V16L12 21L20 16V4H4ZM12 8L8.5 11.5L12 15L15.5 11.5L12 8Z" fill="currentColor"/></symbol><symbol viewBox="0 0 24 24" id="subaccount-s24"><path fill-rule="evenodd" clip-rule="evenodd" d="M12 8.5C12 10.433 10.433 12 8.5 12C6.567 12 5 10.433 5 8.5C5 6.567 6.567 5 8.5 5C10.433 5 12 6.567 12 8.5ZM3 17C3 15.3431 4.34315 14 6 14H11C12.6569 14 14 15.3431 14 17V20H3V17ZM21 5H16V8H21V5ZM21 10.002H16V13.002H21V10.002ZM16 15.0039H21V18.0039H16V15.0039Z" fill="currentColor"/></symbol><symbol viewBox="0 0 24 24" id="user-f"><path fill-rule="evenodd" clip-rule="evenodd" d="M16 8C16 10.2091 14.2091 12 12 12C9.79086 12 8 10.2091 8 8C8 5.79086 9.79086 4 12 4C14.2091 4 16 5.79086 16 8ZM8 14C5.79086 14 4 15.7909 4 18V20H20V18C20 15.7909 18.2091 14 16 14H8Z" fill="currentColor"/></symbol><symbol viewBox="0 0 24 24" id="vip-1c"><path fill-rule="evenodd" clip-rule="evenodd" d="M12.93 4H11.0695L8.18274 9H15.8168L12.93 4ZM8.76009 4H6.5L3 9H5.91468L5.88367 8.9821L8.76009 4ZM3 11L8.31039 17.6227L5.80697 11H3ZM15.5917 17.7264L21 11H18.1413L15.5917 17.7264ZM21 9L17.5 4H15.2394L18.1158 8.9821L18.0848 9H21ZM11.9741 20.9344L7.99625 11H15.952L11.9741 20.9344Z" fill="currentColor"/></symbol><symbol viewBox="0 0 24 24" id="wallet-f"><path fill-rule="evenodd" clip-rule="evenodd" d="M4 8.5C4 6.01472 6.01472 4 8.5 4H20V20H8.5C6.01472 20 4 17.9853 4 15.5V8.5ZM8.5 7H17V10H8.5C7.67157 10 7 9.32843 7 8.5C7 7.67157 7.67157 7 8.5 7ZM13 13H17V17H13V13Z" fill="currentColor"/></symbol><symbol viewBox="0 0 24 24" id="ac-statement"><path fill-rule="evenodd" clip-rule="evenodd" d="M6.29047 5.04291C7.90004 3.72197 9.91782 3 12 3V12L18.364 5.63604C19.8363 7.10838 20.7526 9.04568 20.9567 11.1178C21.1526 13.1071 20.6805 15.1026 19.619 16.7907L13.4142 10.5859L12 12.0002L18.3639 18.3641C17.3237 19.4042 16.0375 20.1802 14.6126 20.6125C12.62 21.2169 10.4796 21.1117 8.55586 20.3149C6.63216 19.5181 5.04426 18.0789 4.06272 16.2426C3.08118 14.4062 2.76673 12.2864 3.17295 10.2442C3.57916 8.202 4.68091 6.36384 6.29047 5.04291Z" fill="currentColor"/></symbol><symbol viewBox="0 0 24 24" id="coin-f"><path fill-rule="evenodd" clip-rule="evenodd" d="M21 12C21 16.9706 16.9706 21 12 21C7.02944 21 3 16.9706 3 12C3 7.02944 7.02944 3 12 3C16.9706 3 21 7.02944 21 12ZM12.0004 7.99992L16.0004 11.9999L12.0004 15.9999L8.00041 11.9999L12.0004 7.99992Z" fill="currentColor"/></symbol><symbol viewBox="0 0 24 24" id="deposit-new-f"> <path fill-rule="evenodd" clip-rule="evenodd" d="M13.5 3H10.5V9.94961L10.197 9.94695L6.03809 9.98779L12.0129 15.9626L17.9878 9.98779L13.8115 9.9787L13.5 9.97597V3ZM3.5 14H6.5V18H17.5V14H20.5V18V21H3.5V18V14Z" fill="currentColor"/></symbol><symbol viewBox="0 0 24 24" id="futures-f"><path fill-rule="evenodd" clip-rule="evenodd" d="M8.5 3H20V16C20 18.2091 18.2091 20 16 20H7.5C5.567 20 4 18.433 4 16.5V9H8.5V3ZM11 14.5056V17.0056L17.5 17.0056V14.5056H11ZM8.5 11.5H6.5V16.5C6.5 17.0523 6.94772 17.5 7.5 17.5C8.05228 17.5 8.5 17.0523 8.5 16.5V11.5ZM12.5001 6.00562H17.5001V11.0056L15.8846 9.3901L13.2691 12.0056L11.5013 10.2379L14.1168 7.62233L12.5001 6.00562Z" fill="currentColor"/></symbol><symbol viewBox="0 0 24 24" id="futures-options-european-f"> <path fill-rule="evenodd" clip-rule="evenodd" d="M20 3H8.5V9H4V16.5C4 18.433 5.567 20 7.5 20H16C18.2091 20 20 18.2091 20 16V3ZM6.5 11.5H8.5V16.5C8.5 17.0523 8.05228 17.5 7.5 17.5C6.94772 17.5 6.5 17.0523 6.5 16.5V11.5ZM16.8637 15.25H11.6611V7.75H16.8637V9.44977H13.536V10.6141H16.3898V12.3035H13.536V13.5502H16.8637V15.25Z" fill="currentColor"/></symbol><symbol viewBox="0 0 24 24" id="list-grid-f"><path fill-rule="evenodd" clip-rule="evenodd" d="M4 4V11H11V4H4ZM13 11V4H20V11H13ZM16.5 20.7426L12.2573 16.5L16.5 12.2574L20.7426 16.5L16.5 20.7426ZM4 13H11V20H4V13Z" fill="currentColor"/></symbol><symbol viewBox="0 0 24 24" id="margin-f"><path fill-rule="evenodd" clip-rule="evenodd" d="M18.7678 7.01874L5.82854 19.958L4.06077 18.1902L17 5.25098L17.8839 6.13486L18.7678 7.01874Z" fill="currentColor"/><path d="M12 4H20V12L12 4Z" fill="currentColor"/><path fill-rule="evenodd" clip-rule="evenodd" d="M7.5 11C9.433 11 11 9.433 11 7.5C11 5.567 9.433 4 7.5 4C5.567 4 4 5.567 4 7.5C4 9.433 5.567 11 7.5 11ZM7.5 5.96875L5.96875 7.5L7.5 9.03125L9.03125 7.50017L7.5 5.96875Z" fill="currentColor"/><path fill-rule="evenodd" clip-rule="evenodd" d="M16.5 20C18.433 20 20 18.433 20 16.5C20 14.567 18.433 13 16.5 13C14.567 13 13 14.567 13 16.5C13 18.433 14.567 20 16.5 20ZM16.5 14.9688L14.9688 16.5L16.5 18.0312L18.0312 16.5002L16.5 14.9688Z" fill="currentColor"/></symbol><symbol viewBox="0 0 24 24" id="market-overview-g"><path d="M16 1H18V4H21V18H18V22H16V18H13V4H16V1Z" fill="url(#paint0_linear_1994_24364)"/><path d="M6 7H8V10H11V18H8V22H6V18H3V10H6V7Z" fill="#76808F"/><defs><linearGradient id="paint0_linear_1994_24364" x1="17" y1="22" x2="17" y2="1" gradientUnits="userSpaceOnUse"><stop stop-color="#F0B90B"/><stop offset="1" stop-color="#F8D33A"/></linearGradient></defs></symbol><symbol viewBox="0 0 24 24" id="market-s24"><path fill-rule="evenodd" clip-rule="evenodd" d="M9.5 4H14.5V19H9.5V4ZM3 11H7.5V19H3V11ZM21 9H16.5V19H21V9Z" fill="currentColor"/></symbol><symbol viewBox="0 0 24 24" id="piggy-bank-f"><path fill-rule="evenodd" clip-rule="evenodd" d="M12.0135 1C9.30088 1 7.10183 3.19905 7.10183 5.91171C7.10183 6.83267 7.3553 7.69443 7.79628 8.43103C5.55306 9.4109 3.95023 11.5837 3.7896 14.1476H2V15.9337H3.91462C4.26878 17.6501 5.27957 19.1265 6.67276 20.0888L5.02451 21.7371L6.28746 23L8.3573 20.9302C9.023 21.1518 9.73515 21.2719 10.4753 21.2719H15.7789L17.3705 22.8635L18.6334 21.6006L17.2935 20.2606L21.6429 15.9112L21.6429 13.2243H19.7091C19.5089 12.122 19.0149 11.1221 18.311 10.3087L20.7459 7.87386H16.5177C16.7798 7.27288 16.9252 6.60927 16.9252 5.91171C16.9252 3.19905 14.7262 1 12.0135 1ZM8.88791 5.91171C8.88791 4.18547 10.2873 2.78608 12.0135 2.78608C13.7398 2.78608 15.1392 4.18547 15.1392 5.91171C15.1392 7.63795 13.7398 9.03734 12.0135 9.03734C10.2873 9.03734 8.88791 7.63795 8.88791 5.91171ZM10.674 5.91171L12.0135 4.57215L13.3531 5.91171L12.0135 7.25127L10.674 5.91171ZM9.7484 13.2344H14.2787V11.4484H9.7484V13.2344Z" fill="currentColor"/></symbol><symbol viewBox="0 0 24 24" id="piggy-bank"><path fill-rule="evenodd" clip-rule="evenodd" d="M1 14H3.15003C3.4738 15.595 4.30376 17.0062 5.46493 18.0587L6.14248 18.7362L4.37868 20.5L6.5 22.6214L9.12135 20H14.9999L17.5 22.5001L19.6213 20.3787L18.1213 18.8787L23 14V11H20.85C20.6005 9.77089 20.0504 8.65093 19.2798 7.72018L22 5H10.5C6.52588 5 3.2737 8.09098 3.0164 12H1V14ZM18 12C18.5523 12 19 11.5523 19 11C19 10.4477 18.5523 10 18 10C17.4477 10 17 10.4477 17 11C17 11.5523 17.4477 12 18 12Z" fill="#76808E"/><path fill-rule="evenodd" clip-rule="evenodd" d="M12 11C14.7614 11 17 8.76142 17 6C17 3.23858 14.7614 1 12 1C9.23858 1 7 3.23858 7 6C7 8.76142 9.23858 11 12 11ZM12 8L10 6L12 4L14 6L12 8Z" fill="url(#paint0_linear_9022_83782)"/><path d="M12 8L10 6L12 4L14 6L12 8Z" fill="#76808E"/><defs><linearGradient id="paint0_linear_9022_83782" x1="12" y1="11" x2="12" y2="1" gradientUnits="userSpaceOnUse"><stop stop-color="#F0B90B"/><stop offset="1" stop-color="#F8D33A"/></linearGradient></defs></symbol><symbol viewBox="0 0 24 24" id="proof-reserve-f"> <path fill-rule="evenodd" clip-rule="evenodd" d="M5 3V21H19V7L15 3H5ZM8 9.5H16V12H8V9.5ZM8 14.5H16V17H8V14.5Z" fill="currentColor"/></symbol><symbol viewBox="0 0 24 24" id="rules-f"><path d="M11 8.2002C11 5.99106 9.20914 4.2002 7 4.2002H3V18.2002H8.16C9.35253 18.2002 10.4033 18.8352 11.0205 19.7998H12.9795C13.5967 18.8352 14.6475 18.2002 15.84 18.2002H21V4.2002H17C14.7909 4.2002 13 5.99106 13 8.2002V16.2002H11V8.2002Z" fill="currentColor"/></symbol><symbol viewBox="0 0 24 24" id="settings-cog-1c"><path fill-rule="evenodd" clip-rule="evenodd" d="M10.2 3H13.8V5.02683C14.4607 5.19687 15.0846 5.45832 15.6576 5.7969L17.0912 4.36324L19.6368 6.90883L18.2031 8.34249C18.5417 8.91545 18.8031 9.53938 18.9732 10.2H21V13.8H18.9732C18.8031 14.4607 18.5417 15.0846 18.2031 15.6576L19.6366 17.0911L17.0911 19.6367L15.6575 18.2031C15.0846 18.5417 14.4606 18.8031 13.8 18.9732V21H10.2V18.9732C9.53932 18.8031 8.91535 18.5417 8.34236 18.2031L6.90866 19.6368L4.36308 17.0912L5.79681 15.6574C5.45828 15.0845 5.19686 14.4606 5.02683 13.8H3V10.2H5.02683C5.19687 9.53935 5.45832 8.9154 5.7969 8.34243L4.36335 6.90888L6.90894 4.3633L8.34249 5.79685C8.91544 5.4583 9.53938 5.19686 10.2 5.02683V3ZM14.7 12C14.7 10.5088 13.4912 9.3 12 9.3C10.5088 9.3 9.3 10.5088 9.3 12C9.3 13.4912 10.5088 14.7 12 14.7C13.4912 14.7 14.7 13.4912 14.7 12Z" fill="currentColor"/></symbol><symbol viewBox="0 0 24 24" id="spot-f"><path fill-rule="evenodd" clip-rule="evenodd" d="M15.0002 3.5C12.471 3.5 10.3406 5.20717 9.6983 7.53206C13.2833 7.86295 16.1373 10.7169 16.4682 14.3019C18.7931 13.6597 20.5002 11.5292 20.5002 9C20.5002 5.96243 18.0378 3.5 15.0002 3.5ZM14.5 15C14.5 11.9624 12.0376 9.5 9 9.5C5.96243 9.5 3.5 11.9624 3.5 15C3.5 18.0376 5.96243 20.5 9 20.5C12.0376 20.5 14.5 18.0376 14.5 15ZM6.5 15L9 17.5L11.5 15L9 12.5L6.5 15ZM9.00006 4H4.00006V9L9.00006 4ZM20.0001 20H15.0001L20.0001 15V20Z" fill="currentColor"/></symbol><symbol viewBox="0 0 24 24" id="trade-f"><path fill-rule="evenodd" clip-rule="evenodd" d="M15.0002 3.5C12.471 3.5 10.3406 5.20717 9.6983 7.53206C13.2833 7.86295 16.1373 10.7169 16.4682 14.3019C18.7931 13.6597 20.5002 11.5292 20.5002 9C20.5002 5.96243 18.0378 3.5 15.0002 3.5ZM14.5 15C14.5 11.9624 12.0376 9.5 9 9.5C5.96243 9.5 3.5 11.9624 3.5 15C3.5 18.0376 5.96243 20.5 9 20.5C12.0376 20.5 14.5 18.0376 14.5 15ZM6.5 15L9 17.5L11.5 15L9 12.5L6.5 15Z" fill="currentColor"/></symbol><symbol viewBox="0 0 24 24" id="trade-trading-bot-f"> <path fill-rule="evenodd" clip-rule="evenodd" d="M9 4H15V6H13V7H20V11.5H22V15.5H20V20H4V15.5H2V11.5H4V7H11V6H9V4ZM10 11.5C10 12.3284 9.32843 13 8.5 13C7.67157 13 7 12.3284 7 11.5C7 10.6716 7.67157 10 8.5 10C9.32843 10 10 10.6716 10 11.5ZM9 15H15V16.5H9V15ZM15.5 13C16.3284 13 17 12.3284 17 11.5C17 10.6716 16.3284 10 15.5 10C14.6716 10 14 10.6716 14 11.5C14 12.3284 14.6716 13 15.5 13Z" fill="currentColor"/></symbol><symbol viewBox="0 0 24 24" id="trading-data-g"><rect width="5" height="7" transform="matrix(1 0 0 -1 2 18)" fill="url(#paint0_linear_1994_24389)"/><path d="M2 18H7V21H2V18Z" fill="#76808F"/><rect width="5" height="8" transform="matrix(1 0 0 -1 17 16)" fill="url(#paint1_linear_1994_24389)"/><path d="M9.5 11H14.5V2H9.5V11Z" fill="url(#paint2_linear_1994_24389)"/><path d="M9.5 21H14.5V11H9.5V21Z" fill="#76808F"/><path d="M17 21H22V16H17V21Z" fill="#76808F"/><defs><linearGradient id="paint0_linear_1994_24389" x1="2.5" y1="0" x2="2.5" y2="7" gradientUnits="userSpaceOnUse"><stop stop-color="#F0B90B"/><stop offset="1" stop-color="#F8D33A"/></linearGradient><linearGradient id="paint1_linear_1994_24389" x1="2.5" y1="0" x2="2.5" y2="8" gradientUnits="userSpaceOnUse"><stop stop-color="#F0B90B"/><stop offset="1" stop-color="#F8D33A"/></linearGradient><linearGradient id="paint2_linear_1994_24389" x1="12" y1="11" x2="12" y2="2" gradientUnits="userSpaceOnUse"><stop stop-color="#F0B90B"/><stop offset="1" stop-color="#F8D33A"/></linearGradient></defs></symbol><symbol viewBox="0 0 24 24" id="transaction-history-f"><path fill-rule="evenodd" clip-rule="evenodd" d="M16.5969 16.5942C15.3277 17.8634 13.6642 18.498 12.0007 18.498H10.7507V20.998H12.0007C14.304 20.998 16.6073 20.1194 18.3646 18.362C21.8794 14.8473 21.8794 9.1488 18.3646 5.63409C14.8499 2.11937 9.15144 2.11937 5.63672 5.63409L7.40449 7.40185C9.94289 4.86344 14.0585 4.86344 16.5969 7.40185C19.1353 9.94026 19.1353 14.0558 16.5969 16.5942ZM13.25 8H10.75V12.5178L13.935 15.7027L15.7027 13.935L13.25 11.4822V8ZM5.62695 9.56836V10.7671L5.53498 10.7745C4.76841 10.8362 4.16351 11.0636 3.75156 11.4356C3.3419 11.8055 3.11328 12.327 3.11328 12.9999C3.11328 13.6835 3.35345 14.2228 3.7888 14.6417C4.22696 15.0634 4.86853 15.3684 5.67775 15.5671L5.75391 15.5858V17.4872L5.63096 17.4582C5.3568 17.3936 5.06065 17.2872 4.79344 17.1534C4.56662 17.0397 4.35592 16.9039 4.19711 16.7531L3.13862 17.9347C3.58482 18.3511 4.44775 18.7193 5.40673 18.9091L5.4873 18.9251V20.2017H7.06465V18.9955L7.15097 18.9836C7.94731 18.8736 8.50751 18.5361 8.86926 18.0926C9.23197 17.6479 9.40059 17.0899 9.40059 16.5314C9.40059 15.8621 9.15539 15.3544 8.73281 14.9631C8.30682 14.5686 7.6959 14.2883 6.96078 14.0892L6.88691 14.0692V12.267L7.01226 12.2999C7.41846 12.4063 7.82818 12.6105 8.11087 12.8579L9.14567 11.7222C8.7157 11.3225 8.04405 11.0255 7.27075 10.8606L7.1916 10.8438V9.56836H5.62695ZM5.81738 13.8398L5.67964 13.7837C5.45876 13.6937 5.29901 13.5986 5.19495 13.4808C5.08694 13.3586 5.04609 13.2204 5.04609 13.0627C5.04609 12.9304 5.07409 12.765 5.17186 12.6153C5.27119 12.4632 5.43668 12.3362 5.69397 12.2743L5.81738 12.2446V13.8398ZM6.87422 17.5178V15.7862L7.02148 15.8651C7.18744 15.9541 7.31318 16.0698 7.39684 16.2121C7.48042 16.3542 7.51855 16.5169 7.51855 16.6948C7.51855 16.8295 7.49833 16.9829 7.42252 17.1239C7.34533 17.2674 7.21476 17.3899 7.00937 17.467L6.87422 17.5178Z" fill="currentColor"/></symbol></svg>